<svg xmlns="http://www.w3.org/2000/svg" xmlns:xlink="http://www.w3.org/1999/xlink" width="60" height="60" viewBox="0 0 60 60">
  <defs>
    <clipPath id="clip-所有平台">
      <rect width="60" height="60"/>
    </clipPath>
  </defs>
  <g id="所有平台" clip-path="url(#clip-所有平台)">
    <g id="Group_76199" data-name="Group 76199" transform="translate(20805 19095)">
      <path id="Union_155" data-name="Union 155" d="M26.011,27.606h0a4.263,4.263,0,0,1-1.947-.311A2.966,2.966,0,0,1,22.5,25.371,3.648,3.648,0,0,1,23.511,21.7a3.861,3.861,0,0,1,3.825-.357,3,3,0,0,1,1.47,1.631A4.317,4.317,0,0,1,29,24.632a3.008,3.008,0,0,1-2.973,2.974h-.013Zm-11.194,0h0a4.266,4.266,0,0,1-1.946-.311,2.98,2.98,0,0,1-1.558-1.925A3.643,3.643,0,0,1,12.32,21.7a3.856,3.856,0,0,1,3.823-.357,2.988,2.988,0,0,1,1.47,1.631,4.317,4.317,0,0,1,.19,1.661,3.008,3.008,0,0,1-2.973,2.974h-.013Zm-11.183,0h0A4.278,4.278,0,0,1,1.682,27.3,2.981,2.981,0,0,1,.124,25.371,3.648,3.648,0,0,1,1.134,21.7a3.857,3.857,0,0,1,3.823-.357,2.988,2.988,0,0,1,1.47,1.631,4.317,4.317,0,0,1,.19,1.661,3,3,0,0,1-2.97,2.974H3.634ZM26.011,17.1h0a4.263,4.263,0,0,1-1.947-.311A2.968,2.968,0,0,1,22.5,14.871,3.645,3.645,0,0,1,23.511,11.2a3.849,3.849,0,0,1,3.825-.357,2.985,2.985,0,0,1,1.47,1.629A4.324,4.324,0,0,1,29,14.13,3.008,3.008,0,0,1,26.024,17.1h-.013Zm-11.194,0h0a4.266,4.266,0,0,1-1.946-.311,2.981,2.981,0,0,1-1.558-1.922A3.641,3.641,0,0,1,12.32,11.2a3.845,3.845,0,0,1,3.823-.357,2.976,2.976,0,0,1,1.47,1.629,4.324,4.324,0,0,1,.19,1.661A3.008,3.008,0,0,1,14.83,17.1h-.013Zm-11.183,0h0a4.278,4.278,0,0,1-1.949-.311A2.983,2.983,0,0,1,.124,14.871,3.645,3.645,0,0,1,1.134,11.2a3.846,3.846,0,0,1,3.823-.357,2.976,2.976,0,0,1,1.47,1.629,4.324,4.324,0,0,1,.19,1.661A3,3,0,0,1,3.648,17.1H3.634ZM26.011,6.61h0A4.233,4.233,0,0,1,24.061,6.3,2.968,2.968,0,0,1,22.5,4.377,3.649,3.649,0,0,1,23.511.7,3.852,3.852,0,0,1,27.336.347a2.992,2.992,0,0,1,1.47,1.629A4.324,4.324,0,0,1,29,3.636,3.005,3.005,0,0,1,26.024,6.61h-.013Zm-11.194,0h0A4.236,4.236,0,0,1,12.867,6.3,2.981,2.981,0,0,1,11.31,4.377,3.644,3.644,0,0,1,12.32.7,3.848,3.848,0,0,1,16.143.347a2.984,2.984,0,0,1,1.47,1.629,4.324,4.324,0,0,1,.19,1.661A3.006,3.006,0,0,1,14.83,6.61h-.013Zm-11.183,0h0A4.248,4.248,0,0,1,1.682,6.3,2.983,2.983,0,0,1,.124,4.377,3.649,3.649,0,0,1,1.134.7,3.848,3.848,0,0,1,4.957.347a2.984,2.984,0,0,1,1.47,1.629,4.324,4.324,0,0,1,.19,1.661A3,3,0,0,1,3.648,6.61H3.634Z" transform="translate(-20789.5 -19078.803)" fill="#9196af"/>
      <rect id="Rectangle_73752" data-name="Rectangle 73752" width="60" height="60" transform="translate(-20805 -19095)" fill="none"/>
    </g>
  </g>
</svg>
