<svg xmlns="http://www.w3.org/2000/svg" xmlns:xlink="http://www.w3.org/1999/xlink" width="36" height="36" viewBox="0 0 36 36">
  <defs>
    <clipPath id="clip-APP下載_滑鼠">
      <rect width="36" height="36"/>
    </clipPath>
  </defs>
  <g id="APP下載_滑鼠" clip-path="url(#clip-APP下載_滑鼠)">
    <g id="Group_82428" data-name="Group 82428" transform="translate(-949.553 -1116.553)">
      <g id="noun-mouse-5024008" transform="translate(957.272 1117.808)">
        <path id="Path_76198" data-name="Path 76198" d="M198.33,45.5a10.5,10.5,0,1,1,21.008,0V58.432a10.5,10.5,0,1,1-21.008,0Zm10.5-8.888a8.888,8.888,0,0,0-8.888,8.888V58.432a8.888,8.888,0,1,0,17.776,0V45.5a8.888,8.888,0,0,0-8.888-8.888Z" transform="translate(-198.33 -35)" fill="#a7b3ee" fill-rule="evenodd"/>
        <path id="Path_76199" data-name="Path 76199" d="M315,107.387a2.387,2.387,0,1,1,4.774,0v4.774a2.387,2.387,0,1,1-4.774,0Zm2.387-.8a.8.8,0,0,0-.8.8v4.774a.8.8,0,1,0,1.591,0v-4.774A.8.8,0,0,0,317.387,106.591Z" transform="translate(-306.883 -100.226)" fill="#a7b3ee" fill-rule="evenodd"/>
        <path id="Path_76200" data-name="Path 76200" d="M339.128,35a.8.8,0,0,1,.8.8v4.774a.8.8,0,0,1-1.591,0V35.8A.8.8,0,0,1,339.128,35Z" transform="translate(-328.624 -35)" fill="#a7b3ee" fill-rule="evenodd"/>
        <path id="Path_76201" data-name="Path 76201" d="M338.33,235.717V233.33h1.591v2.387Z" transform="translate(-328.622 -219.578)" fill="#a7b3ee" fill-rule="evenodd"/>
      </g>
      <rect id="Rectangle_84692" data-name="Rectangle 84692" width="36" height="36" transform="translate(949.553 1116.553)" fill="none"/>
    </g>
  </g>
</svg>
