<svg xmlns="http://www.w3.org/2000/svg" xmlns:xlink="http://www.w3.org/1999/xlink" width="24" height="24" viewBox="0 0 24 24">
  <defs>
    <clipPath id="clip-style2娛樂城首頁_FFFFFF">
      <rect width="24" height="24"/>
    </clipPath>
  </defs>
  <g id="style2娛樂城首頁_FFFFFF" data-name="style2娛樂城首頁#FFFFFF" clip-path="url(#clip-style2娛樂城首頁_FFFFFF)">
    <g id="Group_85639" data-name="Group 85639" transform="translate(16317 -7178)">
      <g id="noun-slot-machine-1942847" transform="translate(-16316 7179.522)">
        <path id="Union_220" data-name="Union 220" d="M.521,20.953a.512.512,0,0,1-.367-.16A.527.527,0,0,1,0,20.424V5.629A.534.534,0,0,1,.521,5.1H17.287a.534.534,0,0,1,.523.533V15.668H19.9V11.344a1.575,1.575,0,0,1-.977-1.027,1.6,1.6,0,0,1,.238-1.408,1.565,1.565,0,0,1,2.525,0,1.608,1.608,0,0,1,.24,1.408,1.588,1.588,0,0,1-.982,1.027V16.2a.5.5,0,0,1-.148.371.531.531,0,0,1-.375.156H17.811v3.7a.527.527,0,0,1-.154.369.513.513,0,0,1-.369.16Zm2.623-2.646a.523.523,0,0,0,.521.529H14.143a.527.527,0,0,0,0-1.055H3.666A.525.525,0,0,0,3.145,18.307Zm-.9-10.941a.537.537,0,0,0-.154.375v7.4a.527.527,0,0,0,.154.369.51.51,0,0,0,.367.158H15.188a.53.53,0,0,0,.527-.527V7.74a.524.524,0,0,0-.527-.529H2.615A.523.523,0,0,0,2.248,7.365Zm9.324,7.23V8.471h3.061V14.6Zm-4.205,0V8.471h3.059V14.6Zm-4.307,0V8.471H6.117V14.6ZM2.039,4.078V2.547a.515.515,0,0,1,.15-.357.507.507,0,0,1,.359-.148H6.174a2.549,2.549,0,0,1,5,0h3.621a.511.511,0,0,1,.361.148.5.5,0,0,1,.148.357V4.078Z" transform="translate(0 0.002)" fill="#fff"/>
      </g>
      <rect id="Rectangle_98136" data-name="Rectangle 98136" width="24" height="24" transform="translate(-16317 7178)" fill="none"/>
    </g>
  </g>
</svg>
