<svg xmlns="http://www.w3.org/2000/svg" xmlns:xlink="http://www.w3.org/1999/xlink" width="60" height="60" viewBox="0 0 60 60">
  <defs>
    <clipPath id="clip-path">
      <rect id="Rectangle_2" data-name="Rectangle 2" width="60" height="60" fill="#ffb31a"/>
    </clipPath>
    <clipPath id="clip-path-2">
      <rect id="Rectangle_31" data-name="Rectangle 31" width="60" height="60" transform="translate(286 253)" fill="#ffb31a"/>
    </clipPath>
    <clipPath id="clip-CMD-hover_">
      <rect width="60" height="60"/>
    </clipPath>
  </defs>
  <g id="CMD-hover_" data-name="CMD-hover " clip-path="url(#clip-CMD-hover_)">
    <g id="CMD-g" clip-path="url(#clip-path)">
      <g id="Mask_Group_1" data-name="Mask Group 1" transform="translate(-286 -253)" clip-path="url(#clip-path-2)">
        <g id="Footer_CMD368" transform="translate(290.286 272.481)">
          <path id="Path_1" data-name="Path 1" d="M19.655,24.291l-.1.1a6.388,6.388,0,0,0-1.488,2.481c.1,0,.3-.1.4-.1.4-.1.794-.3,1.191-.4.1,0,.1,0,.2.1.3.4.6.893.893,1.29.1.1.2.2.3.2.3.1.695.1.992.2h-.794c-.3,0-.5,0-.695.3a5.672,5.672,0,0,1-.695.794.365.365,0,0,0-.1.3c.1.3.1.5.2.794v.2c-.1-.3-.3-.5-.4-.794l-.3-.3c-.4-.1-.794-.2-1.29-.3h-.2a6.149,6.149,0,0,0,3.672,4.366l.3-.6v-.2c-.1-.2-.2-.3-.2-.5l.4.4c.1,0,.1.1.2.1H23.53c.1,0,.1,0,.2-.1l.4-.4c-.1.2-.2.3-.3.5v.2a2.076,2.076,0,0,0,.4.6.1.1,0,0,1,.1.1l.1-.1a10.33,10.33,0,0,1,.6-1.588,4.406,4.406,0,0,1,.794-1.092c.1-.1.3-.2.5-.4.1-.1.1-.1,0-.2,0-.2-.2-.3-.4-.3H24.419a.365.365,0,0,0-.3.1l-.5.5c.1-.2.3-.4.4-.6a.365.365,0,0,0,.1-.3c-.1-.5-.3-1.092-.4-1.687.2-.2.5-.3.695-.5a10.394,10.394,0,0,0,1.092-.794h.1A13.341,13.341,0,0,0,27,27.764h.2c.4-.1.794-.2,1.29-.3-.3.1-.5.3-.794.4a.9.9,0,0,0-.6.6l-.6,1.191c-.1.2-.1.3.1.4l.1.1a2.855,2.855,0,0,1,1.588-.3h6.549c-.1.3-.3.6-.4.893a.546.546,0,0,1-.5.2H29.479a.8.8,0,0,0-.794.4,4.66,4.66,0,0,0-.6.893,8.585,8.585,0,0,0-.695,1.687,1.935,1.935,0,0,0-.1.794c0,.3.2.4.4.5a.9.9,0,0,0,.5.1h3.969a4.837,4.837,0,0,0-.4,1.092l-.1.1H26.106a2.642,2.642,0,0,1-1.191-.3h-.2c-.6.3-1.29.5-1.885.794-.794.3-1.588.5-2.382.794-.1,0-.2.1-.3.1-.3.1-.5,0-.6-.4.4-.1.695-.2,1.092-.3a22.231,22.231,0,0,0,3.382-1.1c.2-.1.3-.2.5-.2,0-.2-.1-.4-.1-.6v-.794c0-.1,0-.2-.1-.1-.3.1-.5.2-.794.3a15.413,15.413,0,0,1-3.572.794,14.947,14.947,0,0,1-2.977.1,7.227,7.227,0,0,1-2.382-.7c-.1-.1-.2-.2-.3-.2a1.261,1.261,0,0,1-.3-1.389.346.346,0,0,0,.1-.2,1.41,1.41,0,0,0,.992,1.488,4.73,4.73,0,0,0,1.985.4c.5,0,.893.1,1.389.1a14.863,14.863,0,0,0,2.183-.2c.794-.2,1.488-.4,2.282-.6.1,0,.1,0,.2-.1h-.2a5.641,5.641,0,0,1-3.672-1.588,5.924,5.924,0,0,1-1.389-2.58v-.2c0-.1,0-.1-.1-.2a4.591,4.591,0,0,0-1.786,2.084,4.818,4.818,0,0,0-.5,2.679.858.858,0,0,1-.3-.6,5.3,5.3,0,0,1-.2-2.183,13.627,13.627,0,0,1,.5-2.778,9.744,9.744,0,0,1,.794-1.786,8,8,0,0,1,2.878-2.878,8.115,8.115,0,0,1,9.328.893,12.071,12.071,0,0,1,1.488,1.687.186.186,0,0,1,0,.3.365.365,0,0,0-.1.3,4.2,4.2,0,0,0-.5-.695A8.168,8.168,0,0,0,25.2,23.781a.365.365,0,0,0-.3.1c-.1.2-.2.5-.3.695v.1c.1.2.1.3.2.5l-.3-.3a.516.516,0,0,0-.4-.2c-.4,0-.794-.1-1.092-.1a.365.365,0,0,0-.3.1c-.2.1-.3.2-.5.3.1-.1.2-.3.3-.4v-.2c-.1-.2-.1-.4-.2-.6,0-.1-.1-.1-.2-.1a5.731,5.731,0,0,0-1.687.6c0-.1.1-.1.1-.2h0a2.9,2.9,0,0,1-.893.2,16.194,16.194,0,0,0-1.985,1.687,9.606,9.606,0,0,0-1.786,3.076,11.277,11.277,0,0,0-.6,2.481v1.389c0,.2.1.3.1.5h0a4.494,4.494,0,0,1,.3-1.588,5.737,5.737,0,0,1,1.786-2.282.546.546,0,0,0,.3-.5v-.2a5.244,5.244,0,0,1,.992-3.175,2.031,2.031,0,0,1,.919-1.373Z" transform="translate(-9.137 -22.802)" fill="#ffb31a"/>
          <path id="Path_2" data-name="Path 2" d="M37.869,31.687c-.2.6-.5,1.191-.695,1.786-.4.992-.794,1.985-1.29,3.076a.1.1,0,0,1-.1.1H33.8c.893-2.183,1.885-4.366,2.778-6.549h4.763v4.069h0c.2-.2.4-.5.6-.695.992-1.092,1.985-2.183,2.977-3.374,0-.1.1-.1.2-.1h4.763c0,.1-.1.2-.1.4-.794,1.985-1.488,3.969-2.282,5.855-.1.3-.1.3-.4.3H43.525c.6-1.488,1.29-3.076,1.885-4.565h0a10.863,10.863,0,0,1-.992,1.092c-.992,1.092-1.985,2.282-2.977,3.374a.346.346,0,0,1-.2.1H38.166c-.1-1.588-.2-3.275-.3-4.862Z" transform="translate(-9.29 -22.855)" fill="#ffb31a"/>
          <path id="Path_3" data-name="Path 3" d="M56.622,40.776c.1,0,.1.1.2.1a.5.5,0,0,1,.4.695l-.3.893a3.481,3.481,0,0,1-.5.794,1.611,1.611,0,0,1-.893.5,3.783,3.783,0,0,1-1.488.1h-6.45a1.008,1.008,0,0,1-.992-.5,1.689,1.689,0,0,1-.1-.695,2.127,2.127,0,0,1,.893-1.488c.2-.1.5-.2.695-.3h.1c-.1,0-.1-.1-.2-.1a.513.513,0,0,1-.3-.7,3.079,3.079,0,0,1,.893-1.786,2.487,2.487,0,0,1,.7-.4,7.785,7.785,0,0,1,2.183-.2h5.458a1.935,1.935,0,0,1,.794.1.725.725,0,0,1,.6.893,3.479,3.479,0,0,1-.6,1.389,1.316,1.316,0,0,1-.992.6.1.1,0,0,1-.1.1Zm-3.771-.695h1.588c.1,0,.2,0,.3-.2a1.907,1.907,0,0,0,.4-1.191.263.263,0,0,0-.3-.3H52.057a.6.6,0,0,0-.6.3c-.1.2-.2.3-.3.5a6.324,6.324,0,0,0-.2.695.263.263,0,0,0,.3.3,8.536,8.536,0,0,1,1.594-.1ZM51.66,43.059h1.588c.1,0,.3,0,.3-.2a5.594,5.594,0,0,0,.4-1.191q.149-.3-.3-.3h-2.98a.752.752,0,0,0-.4.2,2.178,2.178,0,0,0-.5,1.191c-.1.2.1.4.3.4a9.08,9.08,0,0,1,1.592-.1Z" transform="translate(-9.387 -22.914)" fill="#ffb31a"/>
          <path id="Path_4" data-name="Path 4" d="M49.3,36.55c.2-.6.4-1.092.6-1.687.5-1.488,1.092-3.076,1.588-4.565.1-.2.1-.2.3-.2h7.343a1.994,1.994,0,0,1,1.29.4.664.664,0,0,1,.4.7,3.39,3.39,0,0,1-.3,1.687c-.4.893-.695,1.786-1.092,2.679-.1.3-.4.4-.6.6a4.251,4.251,0,0,1-1.588.5,12.009,12.009,0,0,1-1.885.1H49.4C49.4,36.55,49.4,36.55,49.3,36.55Zm3.473-1.092h2.679c.1,0,.1,0,.2-.1a2.172,2.172,0,0,0,.893-.992c.3-.6.5-1.29.794-1.885a2.063,2.063,0,0,0,.1-1.092.213.213,0,0,0-.2-.2h-2.58c-.1,0-.2,0-.2.1-.4.992-.695,1.885-1.092,2.878a5.131,5.131,0,0,0-.594,1.292Z" transform="translate(-9.409 -22.856)" fill="#ffb31a"/>
          <path id="Path_5" data-name="Path 5" d="M38.566,40.179h5.359a2.747,2.747,0,0,1,.893.1,1.049,1.049,0,0,1,.7.6.744.744,0,0,1-.1.5c-.2.5-.5.992-.695,1.488a1.771,1.771,0,0,1-1.191.893,2.466,2.466,0,0,1-.794.1H35.49a2.9,2.9,0,0,1-.893-.2c-.2,0-.2-.1-.4-.3v-.1a.919.919,0,0,1,.1-.695,4.839,4.839,0,0,0,.3-.695c.5-1.092.992-2.282,1.389-3.374.1-.3.4-.5.794-.695a3.982,3.982,0,0,1,1.488-.3h6.053a4.832,4.832,0,0,1,1.191.1,1.611,1.611,0,0,1,.893.5.6.6,0,0,1,.1.4l-.1.1H43.627c-.1,0-.1,0-.2-.1a.546.546,0,0,0-.5-.3H39.658a.758.758,0,0,0-.5.2,6.308,6.308,0,0,0-.6,1.786Zm1.588,1.191H38.169c-.1,0-.1,0-.2.1a2.441,2.441,0,0,0-.4,1.092c0,.3.1.4.4.4h3.374c.1,0,.3-.1.4-.1a1.364,1.364,0,0,0,.5-.794c0-.1.1-.2.1-.3,0-.2,0-.3-.2-.3a13.976,13.976,0,0,0-1.989-.1Z" transform="translate(-9.293 -22.913)" fill="#ffb31a"/>
          <path id="Path_6" data-name="Path 6" d="M23.989,39.089a1.225,1.225,0,0,1,.4-.794,1.8,1.8,0,0,1,1.389-.6h7.343a2.642,2.642,0,0,1,1.191.3.546.546,0,0,1,.3.5,1.934,1.934,0,0,1-.1.794,10.825,10.825,0,0,1-.6,1.092,1.221,1.221,0,0,1-.992.5c.1,0,.1.1.2.1a.665.665,0,0,1,.3.794c-.2.4-.3.794-.5,1.191a1.746,1.746,0,0,1-1.687.992H23.592a1.378,1.378,0,0,1-.992-.5c-.2-.3,0-.794.1-.992h2.878a.365.365,0,0,0-.1.3c-.1.2,0,.3.2.3h3.771a.516.516,0,0,0,.4-.2,2.2,2.2,0,0,0,.5-1.092v-.3H27.362c.1-.3.2-.695.3-.992H30.44a.544.544,0,0,0,.6-.4,2.971,2.971,0,0,0,.4-.794.9.9,0,0,0,.1-.5.213.213,0,0,0-.2-.2H27.759c-.2,0-.3.1-.5.3-.1.1-.2.3-.3.4l-.1.1c-.992-.2-1.985-.2-2.878-.3Z" transform="translate(-9.203 -22.914)" fill="#ffb31a"/>
          <path id="Path_7" data-name="Path 7" d="M31.2,25.578c.794-.2,1.488-.4,2.282-.6-.1-.695-.1-1.389-.2-2.183l.5.5,1.191,1.191c.1.1.1.1.2.1.6-.1,1.191-.3,1.786-.4h.2c-.4.6-.794,1.092-1.191,1.687.5.6.992,1.191,1.588,1.786h0a3.068,3.068,0,0,0-.794-.2c-.4-.1-.893-.3-1.29-.4-.1,0-.1,0-.2.1-.4.5-.695.992-1.092,1.488a.1.1,0,0,1-.1.1c0-.3-.1-.5-.1-.7,0-.4-.1-.893-.1-1.29a.213.213,0,0,0-.2-.2c-.794-.3-1.488-.6-2.282-.893C31.3,25.578,31.3,25.578,31.2,25.578Z" transform="translate(-9.27 -22.8)" fill="#ffb31a"/>
          <path id="Path_8" data-name="Path 8" d="M14.161,39.363c-.4-.2-.794-.3-1.191-.5l-.6-.3h-.2a11.892,11.892,0,0,0-1.092,1.191l-.1.1V37.875c0-.1,0-.2-.1-.2-.6-.3-1.191-.6-1.687-.794a.1.1,0,0,1-.1-.1c.695-.1,1.389-.1,2.084-.2V34.6h0c.1.2.3.3.4.5l.893,1.191c.1.1.1.1.2.1.6-.1,1.191-.1,1.786-.2a17.249,17.249,0,0,1-1.29,1.488,7.485,7.485,0,0,0,.992,1.687Z" transform="translate(-9.1 -22.891)" fill="#ffb31a"/>
          <path id="Path_9" data-name="Path 9" d="M29.8,27.791c.3-.1.5-.2.794-.3,0-.3-.1-.6-.1-.893l.2.2.3.3c.1.2.3.2.5.2a.9.9,0,0,0,.5-.1c-.1.2-.3.4-.4.6a4.316,4.316,0,0,1,.6.7c-.3-.1-.6-.1-.794-.2-.1,0-.2,0-.2.1a2.076,2.076,0,0,1-.4.6c0-.3-.1-.6-.1-.794,0-.1-.1-.1-.1-.2a2.336,2.336,0,0,1-.794-.2Z" transform="translate(-9.259 -22.829)" fill="#ffb31a"/>
          <path id="Path_10" data-name="Path 10" d="M16.488,37.892l.6.6h0c-.2-.1-.5-.1-.695-.2-.1,0-.2,0-.2.1a1.742,1.742,0,0,1-.4.5c0-.3-.1-.5-.1-.7,0-.1,0-.2-.2-.2a1.41,1.41,0,0,1-.6-.2,1.41,1.41,0,0,1,.6-.2v-.8h0l.5.5a.365.365,0,0,0,.3.1,1.074,1.074,0,0,1,.6-.1C16.785,37.495,16.587,37.693,16.488,37.892Z" transform="translate(-9.145 -22.908)" fill="#ffb31a"/>
          <path id="Path_11" data-name="Path 11" d="M18.793,38a.744.744,0,0,0-.5.1.1.1,0,0,1-.1-.1,1.37,1.37,0,0,1-.3-.4h.695a.1.1,0,0,1,.1.1C18.595,37.8,18.694,37.9,18.793,38Z" transform="translate(-9.168 -22.914)" fill="#ffb31a"/>
        </g>
      </g>
    </g>
  </g>
</svg>
