<svg xmlns="http://www.w3.org/2000/svg" xmlns:xlink="http://www.w3.org/1999/xlink" width="60" height="60" viewBox="0 0 60 60">
  <defs>
    <clipPath id="clip-path">
      <rect id="Rectangle_70305" data-name="Rectangle 70305" width="60" height="60" transform="translate(-2771 -3131)" fill="#fff" stroke="#707070" stroke-width="1"/>
    </clipPath>
  </defs>
  <g id="游戏缺图-EVO" transform="translate(2771 3131)" clip-path="url(#clip-path)">
    <g id="Group_75449" data-name="Group 75449" transform="translate(-2847.094 -3188.745)">
      <g id="Group_75446" data-name="Group 75446" transform="translate(85.996 83.118)">
        <path id="Path_68429" data-name="Path 68429" d="M225.015,98.037h6.547v1.43h-4.845v2.086h3.226v1.43h-3.226v2.335h5v1.43h-6.7Z" transform="translate(-225.015 -97.914)" fill="#ffb31a"/>
        <path id="Path_68430" data-name="Path 68430" d="M321.642,138.6h1.742l1.524,4.478,1.416-4.478h1.688l-2.341,6.424h-1.565Z" transform="translate(-315.417 -136.191)" fill="#ffb31a"/>
        <path id="Path_68431" data-name="Path 68431" d="M416.365,140.047a3.3,3.3,0,1,1,3.267,3.321A3.144,3.144,0,0,1,416.365,140.047Zm4.886.041v-.054c0-1.225-.6-1.96-1.579-1.96s-1.592.735-1.592,1.96v.054c0,1.2.585,1.906,1.565,1.906S421.251,141.286,421.251,140.088Z" transform="translate(-404.037 -134.412)" fill="#ffb31a"/>
        <path id="Path_68432" data-name="Path 68432" d="M530.735,96.135h1.7v8.834h-1.7Z" transform="translate(-511.039 -96.135)" fill="#ffb31a"/>
        <path id="Path_68433" data-name="Path 68433" d="M572.219,142.452V138.6h1.688v3.757c0,.857.408,1.361,1.171,1.361.885,0,1.252-.749,1.252-1.851V138.6h1.688v6.424h-1.688v-.912a1.834,1.834,0,0,1-1.756,1.034C573.117,145.147,572.219,144.112,572.219,142.452Z" transform="translate(-549.851 -136.191)" fill="#ffb31a"/>
        <path id="Path_68434" data-name="Path 68434" d="M672.923,112.029V108.8h-.912v-1.309h.912v-1.165l1.647-.89v2.055h1.266V108.8h-1.279v3.077c0,.3.15.432.463.445h.749v1.348h-1.307C673.222,113.6,672.95,113.05,672.923,112.029Z" transform="translate(-643.214 -104.832)" fill="#ffb31a"/>
        <path id="Path_68435" data-name="Path 68435" d="M743.283,98.459h1.756v1.587h-1.756Zm.027,2.492h1.7v6.191h-1.7Z" transform="translate(-709.894 -98.309)" fill="#ffb31a"/>
        <path id="Path_68436" data-name="Path 68436" d="M782.021,140.047a3.3,3.3,0,1,1,3.267,3.321A3.144,3.144,0,0,1,782.021,140.047Zm4.886.041v-.054c0-1.225-.6-1.96-1.579-1.96s-1.592.735-1.592,1.96v.054c0,1.2.585,1.906,1.565,1.906S786.907,141.286,786.907,140.088Z" transform="translate(-746.136 -134.412)" fill="#ffb31a"/>
        <path id="Path_68437" data-name="Path 68437" d="M896.18,136.623h1.688v1.048a1.927,1.927,0,0,1,1.878-1.184c1.4,0,2.232.939,2.232,2.709v3.852H900.29v-3.757c0-.9-.34-1.361-1.13-1.361s-1.293.653-1.293,1.851v3.267H896.18Z" transform="translate(-852.941 -134.214)" fill="#ffb31a"/>
      </g>
      <g id="Group_75447" data-name="Group 75447" transform="translate(77.156 82.221)">
        <path id="Path_68438" data-name="Path 68438" d="M82.987,168.7c-2.687.133-3.949,1.113-4.737,2.321a15.512,15.512,0,0,0-1.094,2.244,5.241,5.241,0,0,0,7.786-4.526A15.355,15.355,0,0,0,82.987,168.7Z" transform="translate(-77.156 -163.442)" fill="#ffb31a"/>
        <path id="Path_68439" data-name="Path 68439" d="M83.207,87.445a15.85,15.85,0,0,0,1.735-.048,5.855,5.855,0,0,0-1.131-3.164,5.211,5.211,0,0,0-6.654-1.362C78.062,84.911,78.741,87.3,83.207,87.445Z" transform="translate(-77.156 -82.221)" fill="#ffb31a"/>
      </g>
      <g id="Group_75448" data-name="Group 75448" transform="translate(83.624 91.951)">
        <path id="Path_68440" data-name="Path 68440" d="M182.438,245.95h-.1v-.065h.28v.065h-.1v.279h-.083Z" transform="translate(-182.031 -245.397)" fill="#ffb31a"/>
        <path id="Path_68441" data-name="Path 68441" d="M187.221,245.885h.132l.063.22.066-.22h.128v.344h-.082v-.278l-.087.278h-.065l-.084-.276v.276h-.071Z" transform="translate(-186.598 -245.397)" fill="#ffb31a"/>
        <path id="Path_68442" data-name="Path 68442" d="M178.211,239.5a.525.525,0,1,1,.525-.525.525.525,0,0,1-.525.525m0-1.185a.659.659,0,1,0,.659.66.66.66,0,0,0-.659-.66" transform="translate(-177.552 -238.319)" fill="#ffb31a"/>
      </g>
    </g>
  </g>
</svg>
