<svg xmlns="http://www.w3.org/2000/svg" xmlns:xlink="http://www.w3.org/1999/xlink" width="60" height="60" viewBox="0 0 60 60">
  <defs>
    <clipPath id="clip-path">
      <rect id="Rectangle_99726" data-name="Rectangle 99726" width="60" height="60" fill="none"/>
    </clipPath>
    <clipPath id="clip-path-2">
      <rect id="Rectangle_99733" data-name="Rectangle 99733" width="48.865" height="26.225" fill="#9196af"/>
    </clipPath>
    <clipPath id="clip-FC_hover">
      <rect width="60" height="60"/>
    </clipPath>
  </defs>
  <g id="FC_hover" clip-path="url(#clip-FC_hover)">
    <g id="Mask_Group_87041" data-name="Mask Group 87041" clip-path="url(#clip-path)">
      <g id="Group_87125" data-name="Group 87125" transform="translate(6.067 17.283)">
        <g id="Group_87124" data-name="Group 87124" clip-path="url(#clip-path-2)">
          <path id="Path_78326" data-name="Path 78326" d="M59.8,48.489a.44.44,0,0,0-.34.72l.6.73.051.062.833,1.011a.439.439,0,0,1,.1.334c0,.007,0,.015,0,.022L57.788,69.8h8.75l1.15-6.557h9.736l.936-5.329H68.627l.726-4.1h9.722l.467-2.626-2.217-2.7Z" transform="translate(-54.862 -46.034)" fill="#9196af"/>
          <path id="Path_78327" data-name="Path 78327" d="M509.373,49.433a5.913,5.913,0,0,0-3.288-.944H490.22l2.1,2.55a.458.458,0,0,1,.094.357l-2.03,11.562a6.375,6.375,0,0,0,.148,2.956c.015.048.031.1.047.143a5.381,5.381,0,0,0,1.358,2.183q.108.1.222.2c.131.113.269.219.411.32q.079.056.16.109.153.1.315.191a5.766,5.766,0,0,0,1.915.66,6.551,6.551,0,0,0,.954.079l6.433,0a7.638,7.638,0,0,0,3.395-.826c.256-.127.505-.27.748-.423q.276-.174.539-.368a8.923,8.923,0,0,0,1.006-.864l.011-.01a8.251,8.251,0,0,0,2.321-4.354l.282-1.606h-6.468l-6.144,5.787,1.4-7.993h-5l9.544-7.982-.922,5.32H511.5l.2-1.15a5.682,5.682,0,0,0-2.327-5.9" transform="translate(-465.397 -46.034)" fill="#9196af"/>
          <path id="Path_78328" data-name="Path 78328" d="M45.329,1.35A8.386,8.386,0,0,0,40.689,0H4.937A2.87,2.87,0,0,0,2.319,1.659,2.87,2.87,0,0,0,2.7,4.736L3.6,5.823,0,26.225H13.739l1.15-6.557h7.669a8.267,8.267,0,0,0,.222.924c.018.059.037.117.056.172l.011.031a7.884,7.884,0,0,0,1.979,3.173c.105.1.215.2.326.3.186.161.382.314.6.467.076.054.154.106.234.159.145.095.3.188.459.278a8.212,8.212,0,0,0,2.728.942,9.022,9.022,0,0,0,1.311.11l6.463,0h0a10.146,10.146,0,0,0,4.49-1.084c.316-.158.64-.34.961-.543.238-.15.471-.309.69-.471a11.442,11.442,0,0,0,1.264-1.084l.032-.031a10.769,10.769,0,0,0,3-5.663l.788-4.486.551-3.139A8.136,8.136,0,0,0,45.329,1.35m2.486,8.216L46.476,17.19a9.839,9.839,0,0,1-2.746,5.172l-.027.026a10.5,10.5,0,0,1-1.164,1c-.2.149-.414.294-.633.432-.3.186-.592.354-.881.5a9.221,9.221,0,0,1-4.079.987l-6.453,0a8.074,8.074,0,0,1-1.176-.1,7.3,7.3,0,0,1-2.423-.836c-.142-.08-.278-.162-.4-.245-.071-.046-.139-.092-.206-.14-.193-.137-.366-.271-.529-.412-.1-.085-.195-.173-.287-.263a6.959,6.959,0,0,1-1.746-2.8l-.012-.036c-.016-.048-.032-.1-.047-.145a7.5,7.5,0,0,1-.295-1.578H14.116L12.965,25.3H1.1L4.578,5.565,3.413,4.151A1.975,1.975,0,0,1,4.937.921H40.689a7.469,7.469,0,0,1,4.133,1.2h0a7.229,7.229,0,0,1,2.994,7.447" fill="#a7b3ee"/>
        </g>
      </g>
    </g>
  </g>
</svg>
