<svg xmlns="http://www.w3.org/2000/svg" xmlns:xlink="http://www.w3.org/1999/xlink" width="24" height="24" viewBox="0 0 24 24">
  <defs>
    <clipPath id="clip-path">
      <rect id="Rectangle_57490" data-name="Rectangle 57490" width="24" height="24" transform="translate(-21549 -14929.068)" fill="#ffb31a" stroke="#707070" stroke-width="1"/>
    </clipPath>
    <clipPath id="clip-游玩记录_FFB31A">
      <rect width="24" height="24"/>
    </clipPath>
  </defs>
  <g id="游玩记录_FFB31A" data-name="游玩记录#FFB31A" clip-path="url(#clip-游玩记录_FFB31A)">
    <g id="游玩记录" transform="translate(21549 14929.068)" clip-path="url(#clip-path)">
      <g id="Group_66281" data-name="Group 66281" transform="translate(-21548.004 -14924.201)">
        <path id="Path_59671" data-name="Path 59671" d="M-221.747-112.965a4.677,4.677,0,0,1-.32,1.888,2.7,2.7,0,0,1-1.371,1.5,1.753,1.753,0,0,1-.965.066,5.721,5.721,0,0,1-2.414-.979,15.382,15.382,0,0,1-2.872-2.437,3,3,0,0,0-1.758-.924,6.814,6.814,0,0,0-2.818.076,3.715,3.715,0,0,0-1.7,1.1,12.047,12.047,0,0,1-3.929,2.866,3.824,3.824,0,0,1-1.736.311,1.537,1.537,0,0,1-.879-.429,3.117,3.117,0,0,1-1.036-1.87,7.334,7.334,0,0,1,.11-3.042,18.471,18.471,0,0,1,2.389-5.856,8.028,8.028,0,0,1,2.244-2.424,3.84,3.84,0,0,1,2.09-.725,2.867,2.867,0,0,1,1.484.393c.513.286,1.033.56,1.561.817a1.371,1.371,0,0,0,.557.126,5.364,5.364,0,0,0,1.214-.05,3.829,3.829,0,0,0,.92-.437c.359-.189.7-.411,1.067-.585a2.948,2.948,0,0,1,2.526.032,6.132,6.132,0,0,1,2.333,1.891,15.636,15.636,0,0,1,2.4,4.489,14.4,14.4,0,0,1,.788,2.9C-221.8-113.831-221.783-113.4-221.747-112.965Zm-15.178-2.607a2.94,2.94,0,0,0,2.938-2.953,2.947,2.947,0,0,0-2.939-2.907,2.912,2.912,0,0,0-2.925,2.931A2.91,2.91,0,0,0-236.925-115.572Zm10.218-2.232a.826.826,0,0,0,.863.821.836.836,0,0,0,.8-.9.865.865,0,0,0-.857-.775A.849.849,0,0,0-226.707-117.8Zm-.951-.963a.828.828,0,0,0,.832-.837.834.834,0,0,0-.841-.83.856.856,0,0,0-.834.832A.847.847,0,0,0-227.658-118.767Zm.758,2.817a.845.845,0,0,0-.818-.84.838.838,0,0,0-.848.806.833.833,0,0,0,.806.861A.835.835,0,0,0-226.9-115.95Z" transform="translate(243.653 123.839)" fill="#ffb31a"/>
        <path id="Path_59672" data-name="Path 59672" d="M-87.86-11.332a1.8,1.8,0,0,1-1.816,1.809,1.823,1.823,0,0,1-1.809-1.887,1.827,1.827,0,0,1,1.815-1.752A1.8,1.8,0,0,1-87.86-11.332Z" transform="translate(96.381 16.724)" fill="#ffb31a"/>
      </g>
    </g>
  </g>
</svg>
