<svg xmlns="http://www.w3.org/2000/svg" xmlns:xlink="http://www.w3.org/1999/xlink" width="24" height="24" viewBox="0 0 24 24">
  <defs>
    <clipPath id="clip-path">
      <rect id="Rectangle_75721" data-name="Rectangle 75721" width="24" height="24" fill="#ccc"/>
    </clipPath>
    <filter id="Icon_feather-heart" x="-0.682" y="1.461" width="25.363" height="23.082" filterUnits="userSpaceOnUse">
      <feOffset dy="1" input="SourceAlpha"/>
      <feGaussianBlur stdDeviation="1" result="blur"/>
      <feFlood flood-opacity="0.6"/>
      <feComposite operator="in" in2="blur"/>
      <feComposite in="SourceGraphic"/>
    </filter>
    <filter id="Icon_feather-heart-2" x="-0.682" y="1.461" width="25.363" height="23.082" filterUnits="userSpaceOnUse">
      <feOffset dy="1" input="SourceAlpha"/>
      <feGaussianBlur stdDeviation="1" result="blur-2"/>
      <feFlood result="color"/>
      <feComposite operator="out" in="SourceGraphic" in2="blur-2"/>
      <feComposite operator="in" in="color"/>
      <feComposite operator="in" in2="SourceGraphic"/>
    </filter>
    <clipPath id="clip-收藏_off">
      <rect width="24" height="24"/>
    </clipPath>
  </defs>
  <g id="收藏_off" clip-path="url(#clip-收藏_off)">
    <g id="Mask_Group_75667" data-name="Mask Group 75667" clip-path="url(#clip-path)">
      <g data-type="innerShadowGroup">
        <g transform="matrix(1, 0, 0, 1, 0, 0)" filter="url(#Icon_feather-heart)">
          <path id="Icon_feather-heart-3" data-name="Icon feather-heart" d="M15.537,3.8a5.45,5.45,0,0,1,3.854,9.3l-7.558,7.558a.747.747,0,0,1-1.056,0L3.219,13.1a5.45,5.45,0,1,1,7.707-7.707l.378.378.378-.378A5.413,5.413,0,0,1,15.537,3.8Z" transform="translate(0.69 -0.34)" fill="#3d4668"/>
        </g>
        <g transform="matrix(1, 0, 0, 1, 0, 0)" filter="url(#Icon_feather-heart-2)">
          <path id="Icon_feather-heart-4" data-name="Icon feather-heart" d="M15.537,3.8a5.45,5.45,0,0,1,3.854,9.3l-7.558,7.558a.747.747,0,0,1-1.056,0L3.219,13.1a5.45,5.45,0,1,1,7.707-7.707l.378.378.378-.378A5.413,5.413,0,0,1,15.537,3.8Z" transform="translate(0.69 -0.34)" fill="#fff"/>
        </g>
      </g>
      <path id="Icon_feather-heart-5" data-name="Icon feather-heart" d="M17.279,3.8a6.126,6.126,0,0,1,4.336,1.776,6.014,6.014,0,0,1,0,8.574l-8.5,8.408a.847.847,0,0,1-1.188,0l-8.5-8.408a6.021,6.021,0,0,1,0-8.574,6.182,6.182,0,0,1,8.672,0l.426.421.426-.421A6.126,6.126,0,0,1,17.279,3.8Zm-4.762,17,7.91-7.821a4.366,4.366,0,0,0,0-6.225,4.487,4.487,0,0,0-6.3,0l-1.02,1.008a.847.847,0,0,1-1.188,0L10.9,6.748a4.488,4.488,0,0,0-6.3,0,4.372,4.372,0,0,0,0,6.225Z" transform="translate(-0.519 -1.407)" fill="#a7b3ee"/>
    </g>
  </g>
</svg>
