<svg xmlns="http://www.w3.org/2000/svg" xmlns:xlink="http://www.w3.org/1999/xlink" width="24" height="24" viewBox="0 0 24 24">
  <defs>
    <clipPath id="clip-path">
      <rect id="Rectangle_57387" data-name="Rectangle 57387" width="24" height="24" fill="#9196af"/>
    </clipPath>
    <clipPath id="clip-視訊_9196AF">
      <rect width="24" height="24"/>
    </clipPath>
  </defs>
  <g id="視訊_9196AF" data-name="視訊#9196AF" clip-path="url(#clip-視訊_9196AF)">
    <g id="分类_彩票_白" clip-path="url(#clip-path)">
      <g id="Group_4215" data-name="Group 4215">
        <rect id="Rectangle_1297" data-name="Rectangle 1297" width="24" height="24" fill="none"/>
        <g id="Group_3810" data-name="Group 3810" transform="translate(1 0.998)">
          <path id="Subtraction_35" data-name="Subtraction 35" d="M-5840-6847a10.923,10.923,0,0,1-7.779-3.22A10.93,10.93,0,0,1-5851-6858a10.923,10.923,0,0,1,3.222-7.779A10.917,10.917,0,0,1-5840-6869a10.907,10.907,0,0,1,7.776,3.223A10.929,10.929,0,0,1-5829-6858a10.929,10.929,0,0,1-3.22,7.778A10.919,10.919,0,0,1-5840-6847Zm7.917-7.215a3.581,3.581,0,0,0-2.554,1.061,3.58,3.58,0,0,0-1.054,2.562,3.511,3.511,0,0,0,.093.8v.007a9.336,9.336,0,0,0,4.064-4.381,3.269,3.269,0,0,0-.543-.046Zm-16.148,0c-.108,0-.211.008-.306.015a9.244,9.244,0,0,0,3.859,4.279,3.241,3.241,0,0,0,.062-.672v-.01a3.618,3.618,0,0,0-3.612-3.616Zm8.209-10.394a6.617,6.617,0,0,0-6.608,6.61,6.56,6.56,0,0,0,1.936,4.669,6.56,6.56,0,0,0,4.676,1.938,6.615,6.615,0,0,0,6.606-6.606,6.627,6.627,0,0,0-6.608-6.609Zm4.456-1.566h0a3.48,3.48,0,0,0-.125.94,3.618,3.618,0,0,0,3.616,3.613v.008h.009a3.094,3.094,0,0,0,.6-.061,9.3,9.3,0,0,0-4.1-4.5Zm-9.15.129h0a9.374,9.374,0,0,0-3.89,4.412,2.813,2.813,0,0,0,.375.025,3.63,3.63,0,0,0,3.621-3.615,3.567,3.567,0,0,0-.105-.826Zm4.6,11.933h0a2.518,2.518,0,0,1-1.823-.771l-.009-.009-.061-.062-.041-.044-.019-.021a4.739,4.739,0,0,1-.75-2.986,4.752,4.752,0,0,1,.788-3.071,2.516,2.516,0,0,1,1.967-.941h.172a2.116,2.116,0,0,1,1.359.491,2.266,2.266,0,0,1,.735,1.434l-1.433.159a1.113,1.113,0,0,0-.274-.66.848.848,0,0,0-.549-.206h-.026a.973.973,0,0,0-.8.42,3.6,3.6,0,0,0-.413,1.766,1.722,1.722,0,0,1,1.351-.661h.028a2.1,2.1,0,0,1,1.593.712,2.583,2.583,0,0,1,.667,1.818,2.7,2.7,0,0,1-.7,1.917,2.525,2.525,0,0,1-1.769.711Zm-.019-4.066a.962.962,0,0,0-.612.222l-.006,0-.032.031-.009.009a.437.437,0,0,0-.059.062,1.462,1.462,0,0,0-.308,1,1.714,1.714,0,0,0,.331,1.117,1.007,1.007,0,0,0,.766.392h.022a.853.853,0,0,0,.665-.319,1.582,1.582,0,0,0,.275-1.059,1.737,1.737,0,0,0-.292-1.109.963.963,0,0,0-.742-.343Z" transform="translate(5851 6868.999)" fill="#9196af" stroke="rgba(0,0,0,0)" stroke-miterlimit="10" stroke-width="1"/>
        </g>
      </g>
    </g>
  </g>
</svg>
