<svg xmlns="http://www.w3.org/2000/svg" xmlns:xlink="http://www.w3.org/1999/xlink" width="24" height="24" viewBox="0 0 24 24">
  <defs>
    <clipPath id="clip-Lobby">
      <rect width="24" height="24"/>
    </clipPath>
  </defs>
  <g id="Lobby" clip-path="url(#clip-Lobby)">
    <g id="Group_87924" data-name="Group 87924" transform="translate(16898 13221)">
      <g id="_049-online_casino" data-name="049-online casino" transform="translate(-16896.906 -13218.624)">
        <path id="Path_78492" data-name="Path 78492" d="M260.117,369.387,255,369.9V365.87h3.775v2.617C258.775,368.8,259.376,369.387,260.117,369.387Z" transform="translate(-245.184 -351.366)" fill="#bebbde"/>
        <path id="Path_78507" data-name="Path 78507" d="M256,369.387l4.027.517V365.87h-2.684v2.617C257.342,368.8,256.741,369.387,256,369.387Z" transform="translate(-249.12 -351.366)" fill="#e2dff5"/>
        <path id="Path_78493" data-name="Path 78493" d="M15,45.12H35.587V56.206H15Z" transform="translate(-14.387 -44.507)" fill="#ffec45"/>
        <path id="Path_78494" data-name="Path 78494" d="M256,45.12h10.295V56.206H256Z" transform="translate(-245.094 -44.507)" fill="#ffb74a"/>
        <path id="Path_78495" data-name="Path 78495" d="M198.9,109.6a1.451,1.451,0,0,1-1.93,1.37v1.616H195.74v-1.616a1.451,1.451,0,0,1-1.93-1.37c0-.8.68-1.74,2.543-2.906C198.216,107.863,198.9,108.8,198.9,109.6Z" transform="translate(-185.446 -103.372)" fill="#5f3463"/>
        <path id="Path_78498" data-name="Path 78498" d="M267,312.365v2.221H255V311.56Z" transform="translate(-245.184 -299.475)" fill="#e2dff5"/>
        <path id="Path_78508" data-name="Path 78508" d="M256,312.365v2.221h10.907V311.56Z" transform="translate(-256 -299.474)" fill="#f4f2ff"/>
        <path id="Path_78500" data-name="Path 78500" d="M255,451.88h6.154v1.227H255Z" transform="translate(-245.185 -433.859)" fill="#e2dff5"/>
        <path id="Path_78506" data-name="Path 78506" d="M261.063,451.88H256v1.227h5.063Z" transform="translate(-250.156 -433.859)" fill="#f4f2ff"/>
        <path id="Path_78501" data-name="Path 78501" d="M0,0H1.227V1.227H0Z" transform="translate(4.886 6.327) rotate(-45)" fill="#ff3d58"/>
        <path id="Path_78502" data-name="Path 78502" d="M0,0H1.227V1.227H0Z" transform="translate(15.19 6.328) rotate(-45)" fill="#c50045"/>
        <path id="Path_78503" data-name="Path 78503" d="M0,30.12V42.433H21.814V30.12ZM20.536,41.206H1.278v-9.86H20.536Z" transform="translate(0 -30.12)" fill="#5f3463"/>
        <path id="Path_78504" data-name="Path 78504" d="M266.907,30.12V42.433H256V41.206h9.629v-9.86H256V30.12Z" transform="translate(-245.093 -30.12)" fill="#462347"/>
        <path id="Path_78505" data-name="Path 78505" d="M198.218,109.6a1.451,1.451,0,0,1-1.93,1.37v1.616h-.613V106.7C197.538,107.863,198.218,108.8,198.218,109.6Z" transform="translate(-184.769 -103.372)" fill="#462347"/>
      </g>
      <rect id="Rectangle_100341" data-name="Rectangle 100341" width="24" height="24" transform="translate(-16898 -13221)" fill="none"/>
    </g>
  </g>
</svg>
