<svg xmlns="http://www.w3.org/2000/svg" xmlns:xlink="http://www.w3.org/1999/xlink" width="259" height="72" viewBox="0 0 259 72">
  <defs>
    <clipPath id="clip-path">
      <rect id="Rectangle_100462" data-name="Rectangle 100462" width="259" height="72"/>
    </clipPath>
  </defs>
  <g id="网页header" clip-path="url(#clip-path)">
    <g id="Group_88780" data-name="Group 88780" transform="translate(0 16.001)">
      <g id="Group_88776" data-name="Group 88776" transform="translate(79.844 4.614)">
        <path id="Path_80443" data-name="Path 80443" d="M290.092,43.834l9.762-27.825h8.916l9.569,27.825-6.495,2.575-2.383-7.341H298.778l-2.306,7.341Zm13.8-21.753-.692,3.037L300.622,33.3h7L305,25.118l-.615-3.037Z" transform="translate(-290.092 -15.202)" fill="#fff"/>
        <path id="Path_80444" data-name="Path 80444" d="M380.251,14.463h7.11V27.031l9.454-13.375,5.65,4L394.317,28.76q1.614,2.537,3.978,5.592t4.9,6.168l-5.8,4.381q-1.077-1.346-2.306-3.037t-2.536-3.535q-1.307-1.845-2.633-3.786t-2.556-3.824v13.3h-7.11Z" transform="translate(-349.313 -13.656)" fill="#fff"/>
        <rect id="Rectangle_100461" data-name="Rectangle 100461" width="6.111" height="6.456" transform="translate(56.149 23.944)" fill="#fff"/>
        <path id="Path_80445" data-name="Path 80445" d="M504.238,21.843a13.568,13.568,0,0,0-6.188-1.537,8.231,8.231,0,0,0-3.517.692,6.49,6.49,0,0,0-2.421,1.9,7.942,7.942,0,0,0-1.384,2.844,13.4,13.4,0,0,0-.442,3.517,14.715,14.715,0,0,0,.422,3.651,7.52,7.52,0,0,0,1.365,2.844,6.231,6.231,0,0,0,2.421,1.845,8.87,8.87,0,0,0,3.594.653,10.146,10.146,0,0,0,3-.461V28.838h6.264V42.674a25.873,25.873,0,0,1-10.261,2.191,16.124,16.124,0,0,1-5.515-.923,11.627,11.627,0,0,1-4.42-2.824,13.154,13.154,0,0,1-2.921-4.843,20.763,20.763,0,0,1-1.057-7.014,19.456,19.456,0,0,1,1.057-6.649,13.973,13.973,0,0,1,2.921-4.9,12.367,12.367,0,0,1,4.439-3.017,14.972,14.972,0,0,1,5.65-1.038,23.059,23.059,0,0,1,5.054.5,18.594,18.594,0,0,1,4.439,1.653Z" transform="translate(-416.92 -13.657)" fill="#fff"/>
        <path id="Path_80446" data-name="Path 80446" d="M558.328,43.834l9.761-27.825h8.917l9.569,27.825-6.495,2.575L577.7,39.068H567.014l-2.306,7.341Zm13.8-21.753-.692,3.037L568.858,33.3h6.995l-2.613-8.186-.615-3.037Z" transform="translate(-466.283 -15.202)" fill="#fff"/>
        <path id="Path_80447" data-name="Path 80447" d="M647.926,16.009h10.492l4.766,15.027.73,4.189h.307l.73-4.189,4.843-15.027h10.415V45.448h-6.726V24.31H673.1l-1.076,5.073L667.18,43.949h-6.341l-4.8-14.566-1-5.073h-.384V45.448h-6.726Z" transform="translate(-525.136 -15.202)" fill="#fff"/>
        <path id="Path_80448" data-name="Path 80448" d="M757.573,16.009h17.372v6.3H764.453v5.112h9.493v6.265h-9.493V39.3h10.991v6.265H757.573Z" transform="translate(-597.158 -15.202)" fill="#fff"/>
      </g>
      <g id="Group_88777" data-name="Group 88777" transform="translate(0 -0.001)">
        <path id="Path_80449" data-name="Path 80449" d="M115.43,40h-5.692a.676.676,0,0,1-.676-.676V.676A.676.676,0,0,1,109.739,0h5.692a.676.676,0,0,1,.676.676V39.324a.676.676,0,0,1-.676.676" transform="translate(-72.209 0)" fill="#f9cf00"/>
        <path id="Path_80450" data-name="Path 80450" d="M160.573,72.218h-7.635a.6.6,0,0,1-.473-.232L138.282,53.631a.6.6,0,0,1,.05-.788l4.005-4.005a.6.6,0,0,1,.89.05l17.813,22.359a.6.6,0,0,1-.468.971" transform="translate(-91.472 -32.218)" fill="#f9cf00"/>
        <path id="Path_80451" data-name="Path 80451" d="M55.12,40.423H48.555a.6.6,0,0,1-.566-.4L37.633,9.862a.6.6,0,0,1,.005-.4l3.14-8.429a.6.6,0,0,1,1.124.008L55.684,39.624a.6.6,0,0,1-.563.8" transform="translate(-24.895 -0.423)" fill="#f9cf00"/>
        <path id="Path_80452" data-name="Path 80452" d="M8.253,87.159a3.631,3.631,0,0,0,2.6-1.086,3.71,3.71,0,0,0,0-5.224L5.965,75.932,1.076,80.849a3.71,3.71,0,0,0,0,5.224,3.666,3.666,0,0,0,4.206.717v.874L3.493,89.057a.674.674,0,0,0-.225.758.686.686,0,0,0,.649.458h4.1a.681.681,0,0,0,.4-1.236l-1.762-1.27V86.79A3.667,3.667,0,0,0,8.253,87.159Z" transform="translate(0 -50.273)" fill="#f9cf00"/>
        <path id="Path_80453" data-name="Path 80453" d="M177.871,7.066l-5.884,7.067L166.1,7.066,171.987,0Z" transform="translate(-109.974 0.001)" fill="#f9cf00"/>
      </g>
    </g>
  </g>
</svg>
