<svg xmlns="http://www.w3.org/2000/svg" xmlns:xlink="http://www.w3.org/1999/xlink" width="33" height="33" viewBox="0 0 33 33">
  <defs>
    <linearGradient id="linear-gradient" x1="0.5" x2="0.5" y2="1" gradientUnits="objectBoundingBox">
      <stop offset="0" stop-color="#fff" stop-opacity="0.2"/>
      <stop offset="1" stop-color="#fff" stop-opacity="0"/>
    </linearGradient>
    <clipPath id="clip-首頁_月爆獎04">
      <rect width="33" height="33"/>
    </clipPath>
  </defs>
  <g id="首頁_月爆獎04" clip-path="url(#clip-首頁_月爆獎04)">
    <g id="Group_78605" data-name="Group 78605" transform="translate(-18 -474)">
      <g id="Group_78534" data-name="Group 78534" transform="translate(-1.71 331.849)">
        <path id="Path_72561" data-name="Path 72561" d="M-.1-13.837-2.9,8.3H-6.16L-10.78-3.842-12.32,8.3H-16.2l2.8-22.14h3.26L-5.5-1.723l1.52-12.114ZM7.48,8.746A5.8,5.8,0,0,1,3.79,7.513,7.825,7.825,0,0,1,1.37,4.065,14.049,14.049,0,0,1,.52-1,19.8,19.8,0,0,1,1.63-7.828a11.125,11.125,0,0,1,3.1-4.744A6.762,6.762,0,0,1,9.26-14.28a5.8,5.8,0,0,1,3.69,1.234A7.825,7.825,0,0,1,15.37-9.6a14.049,14.049,0,0,1,.85,5.061,19.8,19.8,0,0,1-1.11,6.832,11.125,11.125,0,0,1-3.1,4.744A6.762,6.762,0,0,1,7.48,8.746Zm.34-5.187a3.121,3.121,0,0,0,2.32-1.044,6.908,6.908,0,0,0,1.54-2.8,13.135,13.135,0,0,0,.54-3.875,6.53,6.53,0,0,0-.87-3.59A2.742,2.742,0,0,0,8.92-9.093,3.121,3.121,0,0,0,6.6-8.049a6.907,6.907,0,0,0-1.54,2.8,13.135,13.135,0,0,0-.54,3.875,6.53,6.53,0,0,0,.87,3.59A2.742,2.742,0,0,0,7.82,3.559Z" transform="translate(36.2 165.406)" fill="url(#linear-gradient)"/>
        <path id="Path_72578" data-name="Path 72578" d="M2.43-20.85-10.26-4.71H-.09L-1.11,0H4.11L7.83-16.8,2.31-15.54.51-7.5h-5.1l9.9-13.35Z" transform="translate(36 164)" fill="#9196af"/>
      </g>
      <rect id="Rectangle_75786" data-name="Rectangle 75786" width="33" height="33" transform="translate(18 474)" fill="none"/>
    </g>
  </g>
</svg>
