<svg xmlns="http://www.w3.org/2000/svg" xmlns:xlink="http://www.w3.org/1999/xlink" width="33" height="33" viewBox="0 0 33 33">
  <defs>
    <linearGradient id="linear-gradient" x1="0.5" x2="0.5" y2="1" gradientUnits="objectBoundingBox">
      <stop offset="0" stop-color="#fff" stop-opacity="0.2"/>
      <stop offset="1" stop-color="#fff" stop-opacity="0"/>
    </linearGradient>
    <clipPath id="clip-首頁_月爆獎01">
      <rect width="33" height="33"/>
    </clipPath>
  </defs>
  <g id="首頁_月爆獎01" clip-path="url(#clip-首頁_月爆獎01)">
    <g id="Group_78602" data-name="Group 78602" transform="translate(-21 -138)">
      <g id="Group_78527" data-name="Group 78527" transform="translate(1.29 -4.151)">
        <path id="Path_72561" data-name="Path 72561" d="M-.1-13.837-2.9,8.3H-6.16L-10.78-3.842-12.32,8.3H-16.2l2.8-22.14h3.26L-5.5-1.723l1.52-12.114ZM7.48,8.746A5.8,5.8,0,0,1,3.79,7.513,7.825,7.825,0,0,1,1.37,4.065,14.049,14.049,0,0,1,.52-1,19.8,19.8,0,0,1,1.63-7.828a11.125,11.125,0,0,1,3.1-4.744A6.762,6.762,0,0,1,9.26-14.28a5.8,5.8,0,0,1,3.69,1.234A7.825,7.825,0,0,1,15.37-9.6a14.049,14.049,0,0,1,.85,5.061,19.8,19.8,0,0,1-1.11,6.832,11.125,11.125,0,0,1-3.1,4.744A6.762,6.762,0,0,1,7.48,8.746Zm.34-5.187a3.121,3.121,0,0,0,2.32-1.044,6.908,6.908,0,0,0,1.54-2.8,13.135,13.135,0,0,0,.54-3.875,6.53,6.53,0,0,0-.87-3.59A2.742,2.742,0,0,0,8.92-9.093,3.121,3.121,0,0,0,6.6-8.049a6.907,6.907,0,0,0-1.54,2.8,13.135,13.135,0,0,0-.54,3.875,6.53,6.53,0,0,0,.87,3.59A2.742,2.742,0,0,0,7.82,3.559Z" transform="translate(36.2 165.406)" fill="url(#linear-gradient)"/>
        <path id="Path_72575" data-name="Path 72575" d="M3.63-20.85A7.645,7.645,0,0,1,.81-18.12a9.894,9.894,0,0,1-3.63,1.14v.84a3.541,3.541,0,0,1,1.92.72A1.075,1.075,0,0,1-.57-14.4L-3.78,0H1.71L6.42-20.85Z" transform="translate(36 164)" fill="#ec5d42"/>
      </g>
      <rect id="Rectangle_75783" data-name="Rectangle 75783" width="33" height="33" transform="translate(21 138)" fill="none"/>
    </g>
  </g>
</svg>
