<svg xmlns="http://www.w3.org/2000/svg" xmlns:xlink="http://www.w3.org/1999/xlink" width="33" height="33" viewBox="0 0 33 33">
  <defs>
    <linearGradient id="linear-gradient" x1="0.5" x2="0.5" y2="1" gradientUnits="objectBoundingBox">
      <stop offset="0" stop-color="#fff" stop-opacity="0.2"/>
      <stop offset="1" stop-color="#fff" stop-opacity="0"/>
    </linearGradient>
    <clipPath id="clip-首頁_月爆獎05">
      <rect width="33" height="33"/>
    </clipPath>
  </defs>
  <g id="首頁_月爆獎05" clip-path="url(#clip-首頁_月爆獎05)">
    <g id="Group_78606" data-name="Group 78606" transform="translate(-18 -586)">
      <g id="Group_78536" data-name="Group 78536" transform="translate(-1.71 443.849)">
        <path id="Path_72561" data-name="Path 72561" d="M-.1-13.837-2.9,8.3H-6.16L-10.78-3.842-12.32,8.3H-16.2l2.8-22.14h3.26L-5.5-1.723l1.52-12.114ZM7.48,8.746A5.8,5.8,0,0,1,3.79,7.513,7.825,7.825,0,0,1,1.37,4.065,14.049,14.049,0,0,1,.52-1,19.8,19.8,0,0,1,1.63-7.828a11.125,11.125,0,0,1,3.1-4.744A6.762,6.762,0,0,1,9.26-14.28a5.8,5.8,0,0,1,3.69,1.234A7.825,7.825,0,0,1,15.37-9.6a14.049,14.049,0,0,1,.85,5.061,19.8,19.8,0,0,1-1.11,6.832,11.125,11.125,0,0,1-3.1,4.744A6.762,6.762,0,0,1,7.48,8.746Zm.34-5.187a3.121,3.121,0,0,0,2.32-1.044,6.908,6.908,0,0,0,1.54-2.8,13.135,13.135,0,0,0,.54-3.875,6.53,6.53,0,0,0-.87-3.59A2.742,2.742,0,0,0,8.92-9.093,3.121,3.121,0,0,0,6.6-8.049a6.907,6.907,0,0,0-1.54,2.8,13.135,13.135,0,0,0-.54,3.875,6.53,6.53,0,0,0,.87,3.59A2.742,2.742,0,0,0,7.82,3.559Z" transform="translate(36.2 165.406)" fill="url(#linear-gradient)"/>
        <path id="Path_72579" data-name="Path 72579" d="M-3.63-20.85-5.94-9.96c.66-.15,1.23-.27,1.71-.33a10.909,10.909,0,0,1,1.44-.09,5.55,5.55,0,0,1,3.51.96A3.153,3.153,0,0,1,1.95-6.78a3.667,3.667,0,0,1-.3,1.53,4.036,4.036,0,0,1-.93,1.2,3.857,3.857,0,0,1-1.38.78,4.608,4.608,0,0,1-1.74.3,6,6,0,0,1-1.32-.12,6.793,6.793,0,0,1-1.29-.33,14.389,14.389,0,0,1-1.41-.66c-.24-.12-.48-.27-.72-.42a3.979,3.979,0,0,0,.78,2.49,5.094,5.094,0,0,0,2.1,1.5A7.527,7.527,0,0,0-1.5,0,12.705,12.705,0,0,0,2.61-.63a7.738,7.738,0,0,0,2.97-1.8A7.2,7.2,0,0,0,7.11-4.77a7.873,7.873,0,0,0,.54-2.85,4.739,4.739,0,0,0-1.71-3.9A7.15,7.15,0,0,0,1.2-12.93a8.756,8.756,0,0,0-.96.03c-.27.03-.63.09-1.05.18L.24-17.43H8.13l.75-3.42Z" transform="translate(36 164)" fill="#9196af"/>
      </g>
      <rect id="Rectangle_75787" data-name="Rectangle 75787" width="33" height="33" transform="translate(18 586)" fill="none"/>
    </g>
  </g>
</svg>
