<svg xmlns="http://www.w3.org/2000/svg" xmlns:xlink="http://www.w3.org/1999/xlink" width="33" height="33" viewBox="0 0 33 33">
  <defs>
    <linearGradient id="linear-gradient" x1="0.5" x2="0.5" y2="1" gradientUnits="objectBoundingBox">
      <stop offset="0" stop-color="#fff" stop-opacity="0.2"/>
      <stop offset="1" stop-color="#fff" stop-opacity="0"/>
    </linearGradient>
    <clipPath id="clip-首頁_月爆獎02">
      <rect width="33" height="33"/>
    </clipPath>
  </defs>
  <g id="首頁_月爆獎02" clip-path="url(#clip-首頁_月爆獎02)">
    <g id="Group_78603" data-name="Group 78603" transform="translate(-20 -252)">
      <g id="Group_78529" data-name="Group 78529" transform="translate(0.29 109.849)">
        <path id="Path_72561" data-name="Path 72561" d="M-.1-13.837-2.9,8.3H-6.16L-10.78-3.842-12.32,8.3H-16.2l2.8-22.14h3.26L-5.5-1.723l1.52-12.114ZM7.48,8.746A5.8,5.8,0,0,1,3.79,7.513,7.825,7.825,0,0,1,1.37,4.065,14.049,14.049,0,0,1,.52-1,19.8,19.8,0,0,1,1.63-7.828a11.125,11.125,0,0,1,3.1-4.744A6.762,6.762,0,0,1,9.26-14.28a5.8,5.8,0,0,1,3.69,1.234A7.825,7.825,0,0,1,15.37-9.6a14.049,14.049,0,0,1,.85,5.061,19.8,19.8,0,0,1-1.11,6.832,11.125,11.125,0,0,1-3.1,4.744A6.762,6.762,0,0,1,7.48,8.746Zm.34-5.187a3.121,3.121,0,0,0,2.32-1.044,6.908,6.908,0,0,0,1.54-2.8,13.135,13.135,0,0,0,.54-3.875,6.53,6.53,0,0,0-.87-3.59A2.742,2.742,0,0,0,8.92-9.093,3.121,3.121,0,0,0,6.6-8.049a6.907,6.907,0,0,0-1.54,2.8,13.135,13.135,0,0,0-.54,3.875,6.53,6.53,0,0,0,.87,3.59A2.742,2.742,0,0,0,7.82,3.559Z" transform="translate(36.2 165.406)" fill="url(#linear-gradient)"/>
        <path id="Path_72576" data-name="Path 72576" d="M1.44-20.85a12.94,12.94,0,0,0-2.79.27,12.1,12.1,0,0,0-2.4.84l-.69,3.24a6.714,6.714,0,0,1,1.59-.72,8.2,8.2,0,0,1,2.61-.39,3.393,3.393,0,0,1,2.01.54,1.651,1.651,0,0,1,.75,1.41,3.022,3.022,0,0,1-.21,1.11,5.371,5.371,0,0,1-.72,1.32A23,23,0,0,1,.12-11.4c-.6.75-1.41,1.62-2.4,2.7C-3.36-7.53-4.29-6.54-5.04-5.73c-.75.78-1.38,1.47-1.89,2.01l-.45.51L-8.1,0H7.14l.78-3.42H-.72l.18-.18.15-.15a1.81,1.81,0,0,1,.24-.24c.57-.57,1.32-1.38,2.28-2.37.66-.69,1.2-1.23,1.62-1.65s.72-.75.87-.93c.63-.72,1.14-1.38,1.59-1.98a12.194,12.194,0,0,0,1.05-1.74,7.435,7.435,0,0,0,.6-1.59,6.983,6.983,0,0,0,.18-1.59A4.354,4.354,0,0,0,6.3-19.53,7.994,7.994,0,0,0,1.44-20.85Z" transform="translate(36 164)" fill="#e86e2c"/>
      </g>
      <rect id="Rectangle_75784" data-name="Rectangle 75784" width="33" height="33" transform="translate(20 252)" fill="none"/>
    </g>
  </g>
</svg>
