<svg xmlns="http://www.w3.org/2000/svg" xmlns:xlink="http://www.w3.org/1999/xlink" width="33" height="33" viewBox="0 0 33 33">
  <defs>
    <linearGradient id="linear-gradient" x1="0.5" x2="0.5" y2="1" gradientUnits="objectBoundingBox">
      <stop offset="0" stop-color="#fff" stop-opacity="0.2"/>
      <stop offset="1" stop-color="#fff" stop-opacity="0"/>
    </linearGradient>
    <clipPath id="clip-首頁_月爆獎03">
      <rect width="33" height="33"/>
    </clipPath>
  </defs>
  <g id="首頁_月爆獎03" clip-path="url(#clip-首頁_月爆獎03)">
    <g id="Group_78604" data-name="Group 78604" transform="translate(-19 -364)">
      <g id="Group_78531" data-name="Group 78531" transform="translate(-0.71 221.849)">
        <path id="Path_72561" data-name="Path 72561" d="M-.1-13.837-2.9,8.3H-6.16L-10.78-3.842-12.32,8.3H-16.2l2.8-22.14h3.26L-5.5-1.723l1.52-12.114ZM7.48,8.746A5.8,5.8,0,0,1,3.79,7.513,7.825,7.825,0,0,1,1.37,4.065,14.049,14.049,0,0,1,.52-1,19.8,19.8,0,0,1,1.63-7.828a11.125,11.125,0,0,1,3.1-4.744A6.762,6.762,0,0,1,9.26-14.28a5.8,5.8,0,0,1,3.69,1.234A7.825,7.825,0,0,1,15.37-9.6a14.049,14.049,0,0,1,.85,5.061,19.8,19.8,0,0,1-1.11,6.832,11.125,11.125,0,0,1-3.1,4.744A6.762,6.762,0,0,1,7.48,8.746Zm.34-5.187a3.121,3.121,0,0,0,2.32-1.044,6.908,6.908,0,0,0,1.54-2.8,13.135,13.135,0,0,0,.54-3.875,6.53,6.53,0,0,0-.87-3.59A2.742,2.742,0,0,0,8.92-9.093,3.121,3.121,0,0,0,6.6-8.049a6.907,6.907,0,0,0-1.54,2.8,13.135,13.135,0,0,0-.54,3.875,6.53,6.53,0,0,0,.87,3.59A2.742,2.742,0,0,0,7.82,3.559Z" transform="translate(36.2 165.406)" fill="url(#linear-gradient)"/>
        <path id="Path_72577" data-name="Path 72577" d="M.78-20.85a16.83,16.83,0,0,0-4.26.45l-.69,3.06a7.382,7.382,0,0,1,3.24-.81,3.968,3.968,0,0,1,2.37.66,2.138,2.138,0,0,1,.9,1.8,2.458,2.458,0,0,1-1.26,2.22,6.354,6.354,0,0,1-3.48.81,9.343,9.343,0,0,1-1.02-.06c-.3-.03-.66-.09-1.11-.18l-.66,2.91c.33-.03.57-.06.78-.09.21,0,.45-.03.75-.03a5.748,5.748,0,0,1,3.42.87A2.921,2.921,0,0,1,.9-6.75,3.561,3.561,0,0,1-.42-4.02,3.836,3.836,0,0,1-3.09-2.79a5.018,5.018,0,0,1-2.04-.45A4.578,4.578,0,0,1-6.93-4.8a3.922,3.922,0,0,0,.24,2.76A3.678,3.678,0,0,0-4.83-.48,7.731,7.731,0,0,0-2.22,0,11.661,11.661,0,0,0,2.61-.93a6.905,6.905,0,0,0,3.3-2.91A5.507,5.507,0,0,0,6.6-6.57,5.021,5.021,0,0,0,6.15-8.7a3.563,3.563,0,0,0-1.2-1.53,3.664,3.664,0,0,0-1.05-.6,9.849,9.849,0,0,0-1.53-.45c.45-.03.84-.09,1.17-.12q.495-.09.9-.18a2.986,2.986,0,0,0,.78-.27,4.243,4.243,0,0,0,.72-.39A4.321,4.321,0,0,0,7.5-13.8a4.587,4.587,0,0,0,.54-2.22,4.112,4.112,0,0,0-1.86-3.6A9.919,9.919,0,0,0,.78-20.85Z" transform="translate(36 164)" fill="#f3b536"/>
      </g>
      <rect id="Rectangle_75785" data-name="Rectangle 75785" width="33" height="33" transform="translate(19 364)" fill="none"/>
    </g>
  </g>
</svg>
