<svg xmlns="http://www.w3.org/2000/svg" xmlns:xlink="http://www.w3.org/1999/xlink" width="80" height="80" viewBox="0 0 80 80">
  <defs>
    <clipPath id="clip-path">
      <rect id="Rectangle_75630" data-name="Rectangle 75630" width="80" height="80" transform="translate(-11787 -19407)" fill="#9196af" stroke="#707070" stroke-width="1"/>
    </clipPath>
    <clipPath id="clip-empty_空搜寻結果">
      <rect width="80" height="80"/>
    </clipPath>
  </defs>
  <g id="empty_空搜寻結果" clip-path="url(#clip-empty_空搜寻結果)">
    <g id="Mask_Group_75616" data-name="Mask Group 75616" transform="translate(11787 19407)" opacity="0.5" clip-path="url(#clip-path)">
      <g id="noun-miss-4311443_1_" data-name="noun-miss-4311443 (1)" transform="translate(-11773.583 -19387.76)">
        <path id="Path_72520" data-name="Path 72520" d="M104.752,132.739a16.216,16.216,0,1,1,14.7-22.9l3.6-2.9a20.6,20.6,0,0,0-18.3-11.168,20.76,20.76,0,1,0,20.57,23.473l-5.237,2.713a16.277,16.277,0,0,1-15.333,10.791Z" transform="translate(-83.992 -95.764)" fill="#9196af"/>
        <path id="Path_72521" data-name="Path 72521" d="M179.61,181.157l3.344-2.713a12.316,12.316,0,1,0-2.145,12.052,4.517,4.517,0,0,1-3.723-1.767A8.22,8.22,0,0,1,171.344,191a8.392,8.392,0,1,1,8.266-9.844Z" transform="translate(-150.584 -161.849)" fill="#9196af"/>
        <path id="Path_72522" data-name="Path 72522" d="M233.52,249.193a3.912,3.912,0,1,0,3.912-3.912A3.932,3.932,0,0,0,233.52,249.193Z" transform="translate(-216.672 -228.434)" fill="#9196af"/>
        <path id="Path_72523" data-name="Path 72523" d="M364.2,122.788l-5.805-1.2,1.2-5.805a.965.965,0,0,0-1.451-1.01l-6.752,4.417a2.487,2.487,0,0,0-1.072,1.577l-.821,3.786L333.79,135.534a1.664,1.664,0,0,0,1.83,2.776l16.469-9.843,3.786.82a2.6,2.6,0,0,0,1.83-.316l6.752-4.417A.962.962,0,0,0,364.2,122.788Z" transform="translate(-305.017 -112.504)" fill="#9196af"/>
      </g>
    </g>
  </g>
</svg>
