<svg xmlns="http://www.w3.org/2000/svg" xmlns:xlink="http://www.w3.org/1999/xlink" width="80" height="80" viewBox="0 0 80 80">
  <defs>
    <clipPath id="clip-path">
      <rect id="Rectangle_75768" data-name="Rectangle 75768" width="80" height="80" transform="translate(1659 404)" fill="#fff" stroke="#707070" stroke-width="1"/>
    </clipPath>
    <clipPath id="clip-empty_空熱門遊戲">
      <rect width="80" height="80"/>
    </clipPath>
  </defs>
  <g id="empty_空熱門遊戲" clip-path="url(#clip-empty_空熱門遊戲)">
    <g id="Mask_Group_75684" data-name="Mask Group 75684" transform="translate(-1659 -404)" opacity="0.5" clip-path="url(#clip-path)">
      <g id="noun-game-console-4832812" transform="translate(1662.334 405.837)">
        <path id="Path_72562" data-name="Path 72562" d="M138.784,23.216H120.812V18.088h17.03a5.405,5.405,0,0,0,5.4-5.4V2.894a2.9,2.9,0,0,0-5.8,0V12.28H120.406a5.405,5.405,0,0,0-5.4,5.4v5.534H96.59A15.585,15.585,0,0,0,81.026,38.791V69.465A6.856,6.856,0,0,0,91.247,75.44a7.058,7.058,0,0,0,2.5-2.421l12.3-20.287h23.315l12.284,20.287a6.959,6.959,0,0,0,2.5,2.421,6.7,6.7,0,0,0,3.352.883,6.858,6.858,0,0,0,6.857-6.857V38.791a15.594,15.594,0,0,0-15.575-15.575ZM131.2,40.27a1.121,1.121,0,1,1,0-2.243h5.653V32.374a1.121,1.121,0,1,1,2.243,0v5.653h5.653a1.121,1.121,0,1,1,0,2.243h-5.653v5.653a1.121,1.121,0,1,1-2.243,0V40.27Zm-24.162-1.121a2.463,2.463,0,1,1-2.456-2.469A2.471,2.471,0,0,1,107.037,39.149ZM92.869,36.68A2.469,2.469,0,1,1,90.4,39.149,2.474,2.474,0,0,1,92.869,36.68Zm5.915-1.1a2.463,2.463,0,1,1,2.469-2.456A2.471,2.471,0,0,1,98.784,35.583Zm0,7.012a2.469,2.469,0,1,1-2.469,2.469A2.474,2.474,0,0,1,98.784,42.6Z" transform="translate(-81.026 0.004)" fill="#9196af"/>
      </g>
    </g>
  </g>
</svg>
