<svg xmlns="http://www.w3.org/2000/svg" xmlns:xlink="http://www.w3.org/1999/xlink" width="24" height="24" viewBox="0 0 24 24">
  <defs>
    <clipPath id="clip-path">
      <rect id="Rectangle_75629" data-name="Rectangle 75629" width="24" height="24" fill="#fff" stroke="#707070" stroke-width="1"/>
    </clipPath>
    <clipPath id="clip-站内信_铃铛_FFFFFF">
      <rect width="24" height="24"/>
    </clipPath>
  </defs>
  <g id="站内信_铃铛_FFFFFF" data-name="站内信_铃铛#FFFFFF" clip-path="url(#clip-站内信_铃铛_FFFFFF)">
    <g id="Mask_Group_75615" data-name="Mask Group 75615" clip-path="url(#clip-path)">
      <path id="Icon_awesome-bell" data-name="Icon awesome-bell" d="M9.625,22a2.75,2.75,0,0,0,2.749-2.75h-5.5A2.75,2.75,0,0,0,9.625,22Zm9.255-6.433c-.83-.892-2.383-2.234-2.383-6.63A6.785,6.785,0,0,0,11,2.27v-.9a1.374,1.374,0,1,0-2.748,0v.9a6.785,6.785,0,0,0-5.5,6.667c0,4.4-1.553,5.738-2.383,6.63A1.343,1.343,0,0,0,0,16.5a1.376,1.376,0,0,0,1.379,1.375H17.871A1.376,1.376,0,0,0,19.25,16.5a1.342,1.342,0,0,0-.37-.933Z" transform="translate(2.375 1)" fill="#fff"/>
    </g>
  </g>
</svg>
