<svg xmlns="http://www.w3.org/2000/svg" xmlns:xlink="http://www.w3.org/1999/xlink" width="60" height="60" viewBox="0 0 60 60">
  <defs>
    <clipPath id="clip-path">
      <rect id="Rectangle_6" data-name="Rectangle 6" width="60" height="60" fill="#ffb31a"/>
    </clipPath>
    <clipPath id="clip-footer_PG_FFB31A">
      <rect width="60" height="60"/>
    </clipPath>
  </defs>
  <g id="footer_PG_FFB31A" data-name="footer_PG#FFB31A" clip-path="url(#clip-footer_PG_FFB31A)">
    <g id="PG-g" clip-path="url(#clip-path)">
      <g id="Footer_PG">
        <g id="footer_天成" clip-path="url(#clip-path)">
          <g id="Group_12583" data-name="Group 12583" transform="translate(8.187 20.571)">
            <rect id="Rectangle_55496" data-name="Rectangle 55496" width="1.695" height="1.704" transform="translate(2.017 0.022)" fill="#ffb31a"/>
            <rect id="Rectangle_55497" data-name="Rectangle 55497" width="1.677" height="1.731" transform="translate(4.048)" fill="#ffb31a"/>
            <rect id="Rectangle_55498" data-name="Rectangle 55498" width="1.711" height="1.712" transform="translate(6.033 0.03)" fill="#ffb31a"/>
            <rect id="Rectangle_55499" data-name="Rectangle 55499" width="1.689" height="1.716" transform="translate(25.987 10.212)" fill="#ffb31a"/>
            <rect id="Rectangle_55500" data-name="Rectangle 55500" width="1.689" height="1.732" transform="translate(10.117 0.003)" fill="#ffb31a"/>
            <rect id="Rectangle_55501" data-name="Rectangle 55501" width="1.695" height="1.719" transform="translate(12.137 0.015)" fill="#ffb31a"/>
            <rect id="Rectangle_55502" data-name="Rectangle 55502" width="1.691" height="1.727" transform="translate(14.145 0.007)" fill="#ffb31a"/>
            <rect id="Rectangle_55503" data-name="Rectangle 55503" width="1.691" height="1.727" transform="translate(16.149 0.007)" fill="#ffb31a"/>
            <rect id="Rectangle_55504" data-name="Rectangle 55504" width="1.719" height="1.679" transform="translate(34.042 10.219)" fill="#ffb31a"/>
            <rect id="Rectangle_55505" data-name="Rectangle 55505" width="1.683" height="1.727" transform="translate(29.997 0.023)" fill="#ffb31a"/>
            <rect id="Rectangle_55606" data-name="Rectangle 55606" width="1.683" height="1.727" transform="translate(27.996 0.023)" fill="#ffb31a"/>
            <rect id="Rectangle_55506" data-name="Rectangle 55506" width="1.679" height="1.707" transform="translate(36.094 10.215)" fill="#ffb31a"/>
            <rect id="Rectangle_55507" data-name="Rectangle 55507" width="1.695" height="1.727" transform="translate(34.058 0.015)" fill="#ffb31a"/>
            <rect id="Rectangle_55508" data-name="Rectangle 55508" width="1.671" height="1.728" transform="translate(36.089 0.021)" fill="#ffb31a"/>
            <rect id="Rectangle_55509" data-name="Rectangle 55509" width="1.698" height="1.719" transform="translate(38.085 10.214)" fill="#ffb31a"/>
            <rect id="Rectangle_55510" data-name="Rectangle 55510" width="1.704" height="1.707" transform="translate(14.134 4.121)" fill="#ffb31a"/>
            <rect id="Rectangle_55511" data-name="Rectangle 55511" width="1.695" height="1.697" transform="translate(42.153 10.221)" fill="#ffb31a"/>
            <rect id="Rectangle_55512" data-name="Rectangle 55512" width="1.697" height="1.701" transform="translate(2.025 12.232)" fill="#ffb31a"/>
            <rect id="Rectangle_55513" data-name="Rectangle 55513" width="1.689" height="1.698" transform="translate(4.041 12.234)" fill="#ffb31a"/>
            <rect id="Rectangle_55514" data-name="Rectangle 55514" width="1.698" height="1.702" transform="translate(6.049 12.226)" fill="#ffb31a"/>
            <rect id="Rectangle_55515" data-name="Rectangle 55515" width="1.692" height="1.713" transform="translate(10.104 12.208)" fill="#ffb31a"/>
            <rect id="Rectangle_55516" data-name="Rectangle 55516" width="1.694" height="1.701" transform="translate(12.131 12.213)" fill="#ffb31a"/>
            <rect id="Rectangle_55517" data-name="Rectangle 55517" width="1.694" height="1.701" transform="translate(12.131 14.265)" fill="#ffb31a"/>
            <rect id="Rectangle_55518" data-name="Rectangle 55518" width="1.695" height="1.715" transform="translate(14.128 12.207)" fill="#ffb31a"/>
            <rect id="Rectangle_55519" data-name="Rectangle 55519" width="1.704" height="1.698" transform="translate(25.97 12.219)" fill="#ffb31a"/>
            <rect id="Rectangle_55520" data-name="Rectangle 55520" width="1.69" height="1.695" transform="translate(42.164 12.225)" fill="#ffb31a"/>
            <rect id="Rectangle_55521" data-name="Rectangle 55521" width="1.69" height="1.695" transform="translate(42.164 14.228)" fill="#ffb31a"/>
            <rect id="Rectangle_55522" data-name="Rectangle 55522" width="1.71" height="1.705" transform="translate(38.079 14.259)" fill="#ffb31a"/>
            <rect id="Rectangle_55523" data-name="Rectangle 55523" width="1.689" height="1.695" transform="translate(2.035 16.305)" fill="#ffb31a"/>
            <rect id="Rectangle_55605" data-name="Rectangle 55605" width="1.689" height="1.695" transform="translate(2.035 18.309)" fill="#ffb31a"/>
            <rect id="Rectangle_55524" data-name="Rectangle 55524" width="1.693" height="1.69" transform="translate(27.987 16.302)" fill="#ffb31a"/>
            <rect id="Rectangle_55525" data-name="Rectangle 55525" width="1.683" height="1.695" transform="translate(30.002 16.309)" fill="#ffb31a"/>
            <rect id="Rectangle_55526" data-name="Rectangle 55526" width="1.692" height="1.689" transform="translate(36.081 16.317)" fill="#ffb31a"/>
            <rect id="Rectangle_55527" data-name="Rectangle 55527" width="1.691" height="1.716" transform="translate(38.084 16.291)" fill="#ffb31a"/>
            <rect id="Rectangle_55528" data-name="Rectangle 55528" width="1.692" height="1.716" transform="translate(38.078 18.316)" fill="#ffb31a"/>
            <rect id="Rectangle_55529" data-name="Rectangle 55529" width="1.695" height="1.703" transform="translate(2.016 4.113)" fill="#ffb31a"/>
            <rect id="Rectangle_55530" data-name="Rectangle 55530" width="1.694" height="1.704" transform="translate(27.996 18.316)" fill="#ffb31a"/>
            <rect id="Rectangle_55531" data-name="Rectangle 55531" width="1.701" height="1.708" transform="translate(29.984 18.311)" fill="#ffb31a"/>
            <rect id="Rectangle_55532" data-name="Rectangle 55532" width="1.689" height="1.716" transform="translate(18.207 4.106)" fill="#ffb31a"/>
            <rect id="Rectangle_55533" data-name="Rectangle 55533" width="1.695" height="1.708" transform="translate(34.071 18.31)" fill="#ffb31a"/>
            <rect id="Rectangle_55534" data-name="Rectangle 55534" width="1.714" height="1.704" transform="translate(25.954 4.122)" fill="#ffb31a"/>
            <rect id="Rectangle_55535" data-name="Rectangle 55535" width="1.697" height="1.708" transform="translate(27.994 4.109)" fill="#ffb31a"/>
            <rect id="Rectangle_55536" data-name="Rectangle 55536" width="1.727" height="1.697" transform="translate(38.069 4.121)" fill="#ffb31a"/>
            <rect id="Rectangle_55537" data-name="Rectangle 55537" width="1.713" height="1.685" transform="translate(36.074 18.332)" fill="#ffb31a"/>
            <rect id="Rectangle_55538" data-name="Rectangle 55538" width="1.693" height="1.695" transform="translate(34.071 16.304)" fill="#ffb31a"/>
            <rect id="Rectangle_55539" data-name="Rectangle 55539" width="1.689" height="1.695" transform="translate(2.035 6.123)" fill="#ffb31a"/>
            <rect id="Rectangle_55540" data-name="Rectangle 55540" width="1.701" height="1.696" transform="translate(18.204 6.134)" fill="#ffb31a"/>
            <rect id="Rectangle_55541" data-name="Rectangle 55541" width="1.683" height="1.711" transform="translate(25.976 6.115)" fill="#ffb31a"/>
            <rect id="Rectangle_55542" data-name="Rectangle 55542" width="1.709" height="1.703" transform="translate(38.082 8.161)" fill="#ffb31a"/>
            <rect id="Rectangle_55543" data-name="Rectangle 55543" width="1.709" height="1.703" transform="translate(40.093 8.169)" fill="#ffb31a"/>
            <rect id="Rectangle_55607" data-name="Rectangle 55607" width="1.709" height="1.703" transform="translate(42.137 8.169)" fill="#ffb31a"/>
            <rect id="Rectangle_55544" data-name="Rectangle 55544" width="1.671" height="1.714" transform="translate(2.038 10.192)" fill="#ffb31a"/>
            <rect id="Rectangle_55545" data-name="Rectangle 55545" width="1.698" height="1.695" transform="translate(14.147 10.212)" fill="#ffb31a"/>
            <rect id="Rectangle_55546" data-name="Rectangle 55546" width="1.664" height="1.698" transform="translate(16.183 10.206)" fill="#ffb31a"/>
            <rect id="Rectangle_55547" data-name="Rectangle 55547" width="1.692" height="1.697" transform="translate(25.98 14.272)" fill="#ffb31a"/>
            <rect id="Rectangle_55548" data-name="Rectangle 55548" width="1.693" height="1.697" transform="translate(18.206 10.22)" fill="#ffb31a"/>
            <rect id="Rectangle_55549" data-name="Rectangle 55549" width="1.688" height="1.698" transform="translate(27.993 14.253)" fill="#ffb31a"/>
            <rect id="Rectangle_55550" data-name="Rectangle 55550" width="1.685" height="1.713" transform="translate(10.112 14.247)" fill="#ffb31a"/>
            <rect id="Rectangle_55551" data-name="Rectangle 55551" width="1.683" height="1.712" transform="translate(34.073 8.159)" fill="#ffb31a"/>
            <rect id="Rectangle_55552" data-name="Rectangle 55552" width="1.676" height="1.688" transform="translate(25.989 8.16)" fill="#ffb31a"/>
            <rect id="Rectangle_55553" data-name="Rectangle 55553" width="1.698" height="1.695" transform="translate(2.025 14.256)" fill="#ffb31a"/>
            <rect id="Rectangle_55554" data-name="Rectangle 55554" width="1.672" height="1.687" transform="translate(18.219 8.16)" fill="#ffb31a"/>
            <rect id="Rectangle_55555" data-name="Rectangle 55555" width="1.692" height="1.699" transform="translate(2.033 8.174)" fill="#ffb31a"/>
            <rect id="Rectangle_55556" data-name="Rectangle 55556" width="1.719" height="1.702" transform="translate(6.036 14.264)" fill="#ffb31a"/>
            <rect id="Rectangle_55557" data-name="Rectangle 55557" width="1.691" height="1.684" transform="translate(4.046 14.27)" fill="#ffb31a"/>
            <rect id="Rectangle_55558" data-name="Rectangle 55558" width="1.679" height="1.69" transform="translate(16.174 12.234)" fill="#ffb31a"/>
            <rect id="Rectangle_55559" data-name="Rectangle 55559" width="1.689" height="1.69" transform="translate(36.091 8.16)" fill="#ffb31a"/>
            <rect id="Rectangle_55560" data-name="Rectangle 55560" width="1.664" height="1.699" transform="translate(16.179 8.154)" fill="#ffb31a"/>
            <rect id="Rectangle_55561" data-name="Rectangle 55561" width="1.678" height="1.683" transform="translate(16.185 4.129)" fill="#ffb31a"/>
            <rect id="Rectangle_55562" data-name="Rectangle 55562" width="1.653" height="1.712" transform="translate(16.178 6.111)" fill="#ffb31a"/>
            <rect id="Rectangle_55563" data-name="Rectangle 55563" width="1.669" height="1.669" transform="translate(40.133 16.323)" fill="#ffb31a"/>
            <rect id="Rectangle_55564" data-name="Rectangle 55564" width="1.653" height="1.689" transform="translate(40.139 4.136)" fill="#ffb31a"/>
            <rect id="Rectangle_55565" data-name="Rectangle 55565" width="1.672" height="1.677" transform="translate(23.951 14.269)" fill="#ffb31a"/>
            <rect id="Rectangle_55566" data-name="Rectangle 55566" width="1.651" height="1.703" transform="translate(40.123 12.217)" fill="#ffb31a"/>
            <rect id="Rectangle_55567" data-name="Rectangle 55567" width="1.621" height="1.715" transform="translate(0.028 14.262)" fill="#ffb31a"/>
            <rect id="Rectangle_55568" data-name="Rectangle 55568" width="1.655" height="1.709" transform="translate(23.937 6.115)" fill="#ffb31a"/>
            <rect id="Rectangle_55569" data-name="Rectangle 55569" width="1.713" height="1.651" transform="translate(34.053 2.091)" fill="#ffb31a"/>
            <rect id="Rectangle_55570" data-name="Rectangle 55570" width="1.693" height="1.669" transform="translate(36.074 2.081)" fill="#ffb31a"/>
            <rect id="Rectangle_55571" data-name="Rectangle 55571" width="1.726" height="1.665" transform="translate(38.06 2.091)" fill="#ffb31a"/>
            <rect id="Rectangle_55572" data-name="Rectangle 55572" width="1.651" height="1.71" transform="translate(0.026 4.109)" fill="#ffb31a"/>
            <rect id="Rectangle_55573" data-name="Rectangle 55573" width="1.725" height="1.641" transform="translate(6.026 2.093)" fill="#ffb31a"/>
            <rect id="Rectangle_55574" data-name="Rectangle 55574" width="1.571" height="1.626" transform="translate(23.994 4.15)" fill="#ffb31a"/>
            <rect id="Rectangle_55575" data-name="Rectangle 55575" width="1.627" height="1.711" transform="translate(0.027 6.129)" fill="#ffb31a"/>
            <rect id="Rectangle_55576" data-name="Rectangle 55576" width="1.669" height="1.691" transform="translate(40.125 14.264)" fill="#ffb31a"/>
            <rect id="Rectangle_55577" data-name="Rectangle 55577" width="1.647" height="1.697" transform="translate(0.008 16.307)" fill="#ffb31a"/>
            <rect id="Rectangle_55578" data-name="Rectangle 55578" width="1.654" height="1.705" transform="translate(23.944 12.218)" fill="#ffb31a"/>
            <rect id="Rectangle_55579" data-name="Rectangle 55579" width="1.667" height="1.682" transform="translate(8.08 12.232)" fill="#ffb31a"/>
            <rect id="Rectangle_55580" data-name="Rectangle 55580" width="1.69" height="1.671" transform="translate(12.133 2.085)" fill="#ffb31a"/>
            <rect id="Rectangle_55581" data-name="Rectangle 55581" width="1.665" height="1.673" transform="translate(32.021 16.325)" fill="#ffb31a"/>
            <rect id="Rectangle_55582" data-name="Rectangle 55582" width="1.669" height="1.691" transform="translate(23.933 10.224)" fill="#ffb31a"/>
            <rect id="Rectangle_55583" data-name="Rectangle 55583" width="1.65" height="1.701" transform="translate(0.015 12.231)" fill="#ffb31a"/>
            <rect id="Rectangle_55584" data-name="Rectangle 55584" width="1.668" height="1.695" transform="translate(0 18.316)" fill="#ffb31a"/>
            <rect id="Rectangle_55585" data-name="Rectangle 55585" width="1.656" height="1.709" transform="translate(40.123 10.205)" fill="#ffb31a"/>
            <rect id="Rectangle_55586" data-name="Rectangle 55586" width="1.636" height="1.723" transform="translate(32.045 18.295)" fill="#ffb31a"/>
            <rect id="Rectangle_55587" data-name="Rectangle 55587" width="1.648" height="1.695" transform="translate(8.101 14.267)" fill="#ffb31a"/>
            <rect id="Rectangle_55588" data-name="Rectangle 55588" width="1.647" height="1.708" transform="translate(0.023 10.205)" fill="#ffb31a"/>
            <rect id="Rectangle_55589" data-name="Rectangle 55589" width="1.661" height="1.727" transform="translate(8.086 0.008)" fill="#ffb31a"/>
            <rect id="Rectangle_55590" data-name="Rectangle 55590" width="1.669" height="1.705" transform="translate(32.035 0.027)" fill="#ffb31a"/>
            <rect id="Rectangle_55591" data-name="Rectangle 55591" width="1.696" height="1.659" transform="translate(2.019 2.091)" fill="#ffb31a"/>
            <rect id="Rectangle_55592" data-name="Rectangle 55592" width="1.667" height="1.67" transform="translate(4.052 2.073)" fill="#ffb31a"/>
            <rect id="Rectangle_55593" data-name="Rectangle 55593" width="1.684" height="1.66" transform="translate(10.119 2.09)" fill="#ffb31a"/>
            <rect id="Rectangle_55594" data-name="Rectangle 55594" width="1.703" height="1.653" transform="translate(14.135 2.103)" fill="#ffb31a"/>
            <rect id="Rectangle_55595" data-name="Rectangle 55595" width="1.692" height="1.669" transform="translate(25.976 2.085)" fill="#ffb31a"/>
            <rect id="Rectangle_55596" data-name="Rectangle 55596" width="1.666" height="1.688" transform="translate(23.956 8.157)" fill="#ffb31a"/>
            <rect id="Rectangle_55597" data-name="Rectangle 55597" width="1.629" height="1.701" transform="translate(0.022 8.172)" fill="#ffb31a"/>
            <rect id="Rectangle_55598" data-name="Rectangle 55598" width="1.695" height="1.653" transform="translate(27.984 2.081)" fill="#ffb31a"/>
            <rect id="Rectangle_55599" data-name="Rectangle 55599" width="1.72" height="1.647" transform="translate(29.986 2.099)" fill="#ffb31a"/>
            <rect id="Rectangle_55600" data-name="Rectangle 55600" width="1.661" height="1.669" transform="translate(16.185 2.089)" fill="#ffb31a"/>
            <rect id="Rectangle_55601" data-name="Rectangle 55601" width="1.671" height="1.644" transform="translate(40.123 2.103)" fill="#ffb31a"/>
            <rect id="Rectangle_55602" data-name="Rectangle 55602" width="1.647" height="1.674" transform="translate(32.045 2.08)" fill="#ffb31a"/>
            <rect id="Rectangle_55603" data-name="Rectangle 55603" width="1.645" height="1.67" transform="translate(8.1 2.085)" fill="#ffb31a"/>
            <rect id="Rectangle_55604" data-name="Rectangle 55604" width="1.535" height="1.567" transform="translate(0.075 2.138)" fill="#ffb31a"/>
          </g>
        </g>
      </g>
    </g>
  </g>
</svg>
