<svg xmlns="http://www.w3.org/2000/svg" xmlns:xlink="http://www.w3.org/1999/xlink" width="24" height="24" viewBox="0 0 24 24">
  <defs>
    <clipPath id="clip-搜尋">
      <rect width="24" height="24"/>
    </clipPath>
  </defs>
  <g id="搜尋" clip-path="url(#clip-搜尋)">
    <g id="Group_75427" data-name="Group 75427">
      <g id="Icon_feather-search" data-name="Icon feather-search" transform="translate(2 2)">
        <path id="Path_26707" data-name="Path 26707" d="M13.407,3.5A9.907,9.907,0,1,1,3.5,13.407,9.919,9.919,0,0,1,13.407,3.5Zm0,17.483a7.576,7.576,0,1,0-7.576-7.576A7.584,7.584,0,0,0,13.407,20.983Z" transform="translate(-4.5 -4.5)" fill="#fcfcfc"/>
        <path id="Path_26708" data-name="Path 26708" d="M29.894,31.06a1.162,1.162,0,0,1-.824-.341l-4.753-4.753a1.166,1.166,0,0,1,1.649-1.649l4.753,4.753a1.166,1.166,0,0,1-.824,1.99Z" transform="translate(-10.06 -10.06)" fill="#fcfcfc"/>
      </g>
      <rect id="Rectangle_70308" data-name="Rectangle 70308" width="24" height="24" fill="none"/>
    </g>
  </g>
</svg>
