<svg xmlns="http://www.w3.org/2000/svg" xmlns:xlink="http://www.w3.org/1999/xlink" width="24" height="24" viewBox="0 0 24 24">
  <defs>
    <clipPath id="clip-path">
      <rect id="Rectangle_57386" data-name="Rectangle 57386" width="24" height="24" fill="#9196af"/>
    </clipPath>
    <clipPath id="clip-體育_9196AF">
      <rect width="24" height="24"/>
    </clipPath>
  </defs>
  <g id="體育_9196AF" data-name="體育#9196AF" clip-path="url(#clip-體育_9196AF)">
    <g id="分类_体育_白" clip-path="url(#clip-path)">
      <g id="Group_4214" data-name="Group 4214">
        <rect id="Rectangle_1295" data-name="Rectangle 1295" width="24" height="24" fill="none"/>
        <g id="Group_3809" data-name="Group 3809" transform="translate(1.009 0.998)">
          <path id="Subtraction_36" data-name="Subtraction 36" d="M-5841.02-6952a11.108,11.108,0,0,1-3.58-.6,11.045,11.045,0,0,1-4.2-2.628,9.812,9.812,0,0,1-.978-1.128,10.841,10.841,0,0,1-1.672-3.141,10.869,10.869,0,0,1-.568-3.506v-.252a10.918,10.918,0,0,1,1.994-6.08h.008a11.111,11.111,0,0,1,1.213-1.445,10.987,10.987,0,0,1,4.582-2.75,10.949,10.949,0,0,1,3.192-.473,11.04,11.04,0,0,1,3.2.474,10.973,10.973,0,0,1,4.573,2.749,11.046,11.046,0,0,1,1.238,1.466,10.905,10.905,0,0,1,1.986,6.082v.271a10.855,10.855,0,0,1-.573,3.479,10.847,10.847,0,0,1-1.659,3.115,10.958,10.958,0,0,1-5.179,3.766,11.1,11.1,0,0,1-3.582.6Zm-2.922-9.321h0l-4.167,1.341-.571,2.441-.1.422a10.271,10.271,0,0,0,.871,1,9.739,9.739,0,0,0,3.712,2.327l2.455-1.519v-4.291h.158l-2.364-1.72Zm5.9-.04h0l-1.168.849-1.254.909h.091v4.248l2.529,1.561a9.771,9.771,0,0,0,4.584-3.328l-.661-2.782-4.13-1.431.008-.025Zm.435-1.258h0l4.043,1.4,2.273-1.979a9.607,9.607,0,0,0-1.758-5.385l-2.881-.218-2.583,3.565.875,2.7.027-.081Zm-8.374-6.208h0l-3,.226a9.6,9.6,0,0,0-1.767,5.379l2.239,1.947,4.125-1.328.852-2.617-2.451-3.607Zm1.079-.828h0l2.434,3.579h2.888l2.534-3.5-1.144-2.743h0a9.808,9.808,0,0,0-2.829-.416,9.78,9.78,0,0,0-2.83.415h0l-1.112,2.7.056-.038Z" transform="translate(5852.019 6974.002)" fill="#9196af" stroke="rgba(0,0,0,0)" stroke-miterlimit="10" stroke-width="1"/>
        </g>
      </g>
    </g>
  </g>
</svg>
