<svg xmlns="http://www.w3.org/2000/svg" xmlns:xlink="http://www.w3.org/1999/xlink" width="60" height="60" viewBox="0 0 60 60">
  <defs>
    <clipPath id="clip-path">
      <rect id="Rectangle_81064" data-name="Rectangle 81064" width="60" height="60"/>
    </clipPath>
    <clipPath id="clip-path-2">
      <rect id="Rectangle_8" data-name="Rectangle 8" width="60" height="60" fill="#ffb31a"/>
    </clipPath>
  </defs>
  <g id="T1_active" clip-path="url(#clip-path)">
    <g id="footer_XG_FFB31A" data-name="footer_XG#FFB31A" clip-path="url(#clip-path)">
      <g id="XG-g" clip-path="url(#clip-path-2)">
        <g id="XG-g-2" data-name="XG-g">
          <g id="Footer_XG">
            <g id="Group_13440" data-name="Group 13440">
              <rect id="Rectangle_55495" data-name="Rectangle 55495" width="60" height="60" fill="#ffb31a" opacity="0"/>
              <g id="T1_LOGO" transform="translate(-2.984 11.25)">
                <path id="Path_77926" data-name="Path 77926" d="M32.965,85.356A15.475,15.475,0,0,1,18.134,74.294a14.817,14.817,0,0,1-.6-5.362A15.25,15.25,0,0,1,21.9,59.05c.112-.131.094-.131.225,0,1.387,1.406,2.775,2.794,4.163,4.181.075.075.075.112,0,.188a9.286,9.286,0,1,0,15.731,8.512,9.078,9.078,0,0,0-2.4-8.55c-.131-.15-.131-.15,0-.281l4.144-4.144c.075-.075.113-.075.188,0a15.523,15.523,0,0,1,4.237,7.988,14.839,14.839,0,0,1,.188,4.556,15.475,15.475,0,0,1-8.212,12.094,15.253,15.253,0,0,1-4.912,1.594A15.846,15.846,0,0,1,32.965,85.356Z" transform="translate(0 -47.856)" fill="#ffb31a"/>
                <path id="Path_77927" data-name="Path 77927" d="M81.587,5.456l-.037.037-.056.056L76.15,10.894c-.075.075-.113.075-.187,0C74.2,9.112,72.419,7.35,70.656,5.587c-.075-.075-.075-.113,0-.187L76,.056c.075-.075.113-.075.188,0C77.95,1.837,79.731,3.6,81.512,5.381,81.531,5.4,81.55,5.437,81.587,5.456Z" transform="translate(-43.148)" fill="#ffb31a"/>
              </g>
            </g>
          </g>
        </g>
      </g>
    </g>
  </g>
</svg>
