<svg xmlns="http://www.w3.org/2000/svg" xmlns:xlink="http://www.w3.org/1999/xlink" width="24" height="24" viewBox="0 0 24 24">
  <defs>
    <clipPath id="clip-_24H_TOP_Bonus">
      <rect width="24" height="24"/>
    </clipPath>
  </defs>
  <g id="_24H_TOP_Bonus" data-name="24H TOP Bonus" clip-path="url(#clip-_24H_TOP_Bonus)">
    <g id="Group_88352" data-name="Group 88352" transform="translate(17430 13350.7)">
      <path id="Union_267" data-name="Union 267" d="M4.868,18.72a.224.224,0,0,1-.237-.214v-.519a.852.852,0,0,1,.889-.8H7.088V15.736a.507.507,0,0,1,.533-.483h6.513a.507.507,0,0,1,.533.482v1.447h1.568a.852.852,0,0,1,.889.8v.519a.223.223,0,0,1-.237.214Zm4.278-4.229c0-.01-.413-.989-1.039-1.242l-.786-.305a5.892,5.892,0,0,1-2.576-1.982,5.034,5.034,0,0,1-.8-1.589A.2.2,0,0,1,3.9,9.352C.878,7.621.066,3.738,0,2.552c-.031-.2.188-.347.409-.347H3.8V.686C3.8.3,4.211,0,4.741,0H17.262c.512,0,.945.314.945.686v1.52h3.384A.381.381,0,0,1,22,2.552c-.064,1.162-.875,5.07-3.9,6.8a.244.244,0,0,1-.045.02,5,5,0,0,1-.788,1.588,5.833,5.833,0,0,1-2.588,1.982l-.787.305c-.619.25-1.1,1.234-1.1,1.243h0Zm3.613-4.87.05.025.025.012.051.025a.513.513,0,0,0,.282-.092.389.389,0,0,0,.189-.428L13.04,7.294l1.384-1.317a.433.433,0,0,0,.126-.46.485.485,0,0,0-.378-.308l-1.918-.275L11.4,3.251a.464.464,0,0,0-.818,0L9.737,4.935,7.817,5.21a.486.486,0,0,0-.377.308.508.508,0,0,0,.125.46L8.95,7.294,8.636,9.162a.408.408,0,0,0,.188.428.448.448,0,0,0,.265.087A.413.413,0,0,0,9.3,9.621l1.732-.887ZM1.764,3.837a8.87,8.87,0,0,0,.6,1.9A5.129,5.129,0,0,0,3.8,7.474V3.59H2.017C1.859,3.59,1.733,3.713,1.764,3.837ZM18.207,7.471A5.559,5.559,0,0,0,19.64,5.742a11.067,11.067,0,0,0,.6-1.9c.031-.124-.095-.248-.252-.248h-1.78Z" transform="translate(-17429 -13348.061)" fill="#9196af"/>
      <rect id="Rectangle_100304" data-name="Rectangle 100304" width="24" height="24" transform="translate(-17430 -13350.7)" fill="none"/>
    </g>
  </g>
</svg>
